<?xml version="1.0" encoding="UTF-8" standalone="no"?>
<!DOCTYPE svg PUBLIC "-//W3C//DTD SVG 1.1//EN"
 "http://www.w3.org/Graphics/SVG/1.1/DTD/svg11.dtd">
<!-- Generated by graphviz version 2.40.1 (20161225.0304)
 -->
<!-- Title: G Pages: 1 -->
<svg width="465pt" height="582pt"
 viewBox="0.00 0.00 465.45 582.00" xmlns="http://www.w3.org/2000/svg" xmlns:xlink="http://www.w3.org/1999/xlink">
<g id="graph0" class="graph" transform="scale(1 1) rotate(0) translate(4 578)">
<title>G</title>
<polygon fill="#ffffff" stroke="transparent" points="-4,4 -4,-578 461.4535,-578 461.4535,4 -4,4"/>
<!-- A0 -->
<g id="node1" class="node">
<title>A0</title>
<polygon fill="none" stroke="#000000" points="161.944,-511.5 161.944,-551.5 270.513,-551.5 270.513,-511.5 161.944,-511.5"/>
<text text-anchor="middle" x="216.2285" y="-538.5" font-family="Helvetica,sans-Serif" font-size="10.00" fill="#000000">OwlBaseMessage</text>
<polyline fill="none" stroke="#000000" points="161.944,-531.5 270.513,-531.5 "/>
<text text-anchor="middle" x="216.2285" y="-518.5" font-family="Helvetica,sans-Serif" font-size="10.00" fill="#000000">mac</text>
</g>
<!-- A4 -->
<g id="node5" class="node">
<title>A4</title>
<polygon fill="none" stroke="#000000" points="26.3935,-342.5 26.3935,-414.5 106.0635,-414.5 106.0635,-342.5 26.3935,-342.5"/>
<text text-anchor="middle" x="66.2285" y="-401.5" font-family="Helvetica,sans-Serif" font-size="10.00" fill="#000000">OwlHeating</text>
<polyline fill="none" stroke="#000000" points="26.3935,-394.5 106.0635,-394.5 "/>
<text text-anchor="middle" x="66.2285" y="-381.5" font-family="Helvetica,sans-Serif" font-size="10.00" fill="#000000">zones</text>
<polyline fill="none" stroke="#000000" points="26.3935,-374.5 106.0635,-374.5 "/>
<text text-anchor="middle" x="66.2285" y="-361.5" font-family="Helvetica,sans-Serif" font-size="10.00" fill="#000000">__init()__</text>
<text text-anchor="middle" x="66.2285" y="-349.5" font-family="Helvetica,sans-Serif" font-size="10.00" fill="#000000">__str()__</text>
</g>
<!-- A0&#45;&gt;A4 -->
<g id="edge1" class="edge">
<title>A0&#45;&gt;A4</title>
<path fill="none" stroke="#000000" d="M189.4217,-504.1571C164.9244,-479.1698 128.5274,-442.0448 101.6428,-414.6226"/>
<polygon fill="none" stroke="#000000" points="187.1186,-506.8074 196.6186,-511.4979 192.1171,-501.9069 187.1186,-506.8074"/>
</g>
<!-- A5 -->
<g id="node6" class="node">
<title>A5</title>
<polygon fill="none" stroke="#000000" points="110.509,-165.5 110.509,-237.5 197.948,-237.5 197.948,-165.5 110.509,-165.5"/>
<text text-anchor="middle" x="154.2285" y="-224.5" font-family="Helvetica,sans-Serif" font-size="10.00" fill="#000000">OwlHotWater</text>
<polyline fill="none" stroke="#000000" points="110.509,-217.5 197.948,-217.5 "/>
<text text-anchor="middle" x="154.2285" y="-204.5" font-family="Helvetica,sans-Serif" font-size="10.00" fill="#000000">zones</text>
<polyline fill="none" stroke="#000000" points="110.509,-197.5 197.948,-197.5 "/>
<text text-anchor="middle" x="154.2285" y="-184.5" font-family="Helvetica,sans-Serif" font-size="10.00" fill="#000000">__init()__</text>
<text text-anchor="middle" x="154.2285" y="-172.5" font-family="Helvetica,sans-Serif" font-size="10.00" fill="#000000">__str()__</text>
</g>
<!-- A0&#45;&gt;A5 -->
<g id="edge2" class="edge">
<title>A0&#45;&gt;A5</title>
<path fill="none" stroke="#000000" d="M195.0141,-502.9156C183.3033,-485.4184 169.8282,-462.0297 163.2285,-439 143.4498,-369.9818 146.4,-285.0661 150.3193,-237.7483"/>
<polygon fill="none" stroke="#000000" points="192.3727,-505.2505 200.9315,-511.4954 198.1351,-501.2762 192.3727,-505.2505"/>
</g>
<!-- A6 -->
<g id="node7" class="node">
<title>A6</title>
<polygon fill="none" stroke="#000000" points="172.234,-318.5 172.234,-438.5 260.223,-438.5 260.223,-318.5 172.234,-318.5"/>
<text text-anchor="middle" x="216.2285" y="-425.5" font-family="Helvetica,sans-Serif" font-size="10.00" fill="#000000">OwlElectricity</text>
<polyline fill="none" stroke="#000000" points="172.234,-418.5 260.223,-418.5 "/>
<text text-anchor="middle" x="216.2285" y="-405.5" font-family="Helvetica,sans-Serif" font-size="10.00" fill="#000000">battery_pc</text>
<text text-anchor="middle" x="216.2285" y="-393.5" font-family="Helvetica,sans-Serif" font-size="10.00" fill="#000000">battery</text>
<text text-anchor="middle" x="216.2285" y="-381.5" font-family="Helvetica,sans-Serif" font-size="10.00" fill="#000000">channels</text>
<text text-anchor="middle" x="216.2285" y="-369.5" font-family="Helvetica,sans-Serif" font-size="10.00" fill="#000000">rssi</text>
<text text-anchor="middle" x="216.2285" y="-357.5" font-family="Helvetica,sans-Serif" font-size="10.00" fill="#000000">lqi</text>
<polyline fill="none" stroke="#000000" points="172.234,-350.5 260.223,-350.5 "/>
<text text-anchor="middle" x="216.2285" y="-337.5" font-family="Helvetica,sans-Serif" font-size="10.00" fill="#000000">__init()__</text>
<text text-anchor="middle" x="216.2285" y="-325.5" font-family="Helvetica,sans-Serif" font-size="10.00" fill="#000000">__str()__</text>
</g>
<!-- A0&#45;&gt;A6 -->
<g id="edge3" class="edge">
<title>A0&#45;&gt;A6</title>
<path fill="none" stroke="#000000" d="M216.2285,-501.4108C216.2285,-483.5638 216.2285,-460.2994 216.2285,-438.8186"/>
<polygon fill="none" stroke="#000000" points="212.7286,-501.4979 216.2285,-511.4979 219.7286,-501.498 212.7286,-501.4979"/>
</g>
<!-- A7 -->
<g id="node8" class="node">
<title>A7</title>
<polygon fill="none" stroke="#000000" points="277.7285,-336.5 277.7285,-420.5 360.7285,-420.5 360.7285,-336.5 277.7285,-336.5"/>
<text text-anchor="middle" x="319.2285" y="-407.5" font-family="Helvetica,sans-Serif" font-size="10.00" fill="#000000">OwlWeather</text>
<polyline fill="none" stroke="#000000" points="277.7285,-400.5 360.7285,-400.5 "/>
<text text-anchor="middle" x="319.2285" y="-387.5" font-family="Helvetica,sans-Serif" font-size="10.00" fill="#000000">temperature</text>
<text text-anchor="middle" x="319.2285" y="-375.5" font-family="Helvetica,sans-Serif" font-size="10.00" fill="#000000">text</text>
<polyline fill="none" stroke="#000000" points="277.7285,-368.5 360.7285,-368.5 "/>
<text text-anchor="middle" x="319.2285" y="-355.5" font-family="Helvetica,sans-Serif" font-size="10.00" fill="#000000">__init()__</text>
<text text-anchor="middle" x="319.2285" y="-343.5" font-family="Helvetica,sans-Serif" font-size="10.00" fill="#000000">__str()__</text>
</g>
<!-- A0&#45;&gt;A7 -->
<g id="edge4" class="edge">
<title>A0&#45;&gt;A7</title>
<path fill="none" stroke="#000000" d="M235.3113,-503.1536C250.8802,-480.0271 273.1098,-447.0064 290.7786,-420.7605"/>
<polygon fill="none" stroke="#000000" points="232.3751,-501.2479 229.694,-511.4979 238.1819,-505.1571 232.3751,-501.2479"/>
</g>
<!-- A8 -->
<g id="node9" class="node">
<title>A8</title>
<polygon fill="none" stroke="#000000" points="378.6085,-336.5 378.6085,-420.5 453.8485,-420.5 453.8485,-336.5 378.6085,-336.5"/>
<text text-anchor="middle" x="416.2285" y="-407.5" font-family="Helvetica,sans-Serif" font-size="10.00" fill="#000000">OwlSolar</text>
<polyline fill="none" stroke="#000000" points="378.6085,-400.5 453.8485,-400.5 "/>
<text text-anchor="middle" x="416.2285" y="-387.5" font-family="Helvetica,sans-Serif" font-size="10.00" fill="#000000">generating</text>
<text text-anchor="middle" x="416.2285" y="-375.5" font-family="Helvetica,sans-Serif" font-size="10.00" fill="#000000">exporting</text>
<polyline fill="none" stroke="#000000" points="378.6085,-368.5 453.8485,-368.5 "/>
<text text-anchor="middle" x="416.2285" y="-355.5" font-family="Helvetica,sans-Serif" font-size="10.00" fill="#000000">__init()__</text>
<text text-anchor="middle" x="416.2285" y="-343.5" font-family="Helvetica,sans-Serif" font-size="10.00" fill="#000000">__str()__</text>
</g>
<!-- A0&#45;&gt;A8 -->
<g id="edge5" class="edge">
<title>A0&#45;&gt;A8</title>
<path fill="none" stroke="#000000" d="M253.8971,-505.7725C262.4706,-500.1171 271.5974,-494.252 280.2285,-489 319.3186,-465.2136 335.6439,-468.9622 370.2285,-439 376.5113,-433.5569 382.4876,-427.1289 387.9279,-420.5302"/>
<polygon fill="none" stroke="#000000" points="251.9343,-502.8745 245.547,-511.3275 255.8115,-508.7026 251.9343,-502.8745"/>
</g>
<!-- A1 -->
<g id="node2" class="node">
<title>A1</title>
<polygon fill="none" stroke="#000000" points="375.0035,-153.5 375.0035,-249.5 457.4535,-249.5 457.4535,-153.5 375.0035,-153.5"/>
<text text-anchor="middle" x="416.2285" y="-236.5" font-family="Helvetica,sans-Serif" font-size="10.00" fill="#000000">OwlChannel</text>
<polyline fill="none" stroke="#000000" points="375.0035,-229.5 457.4535,-229.5 "/>
<text text-anchor="middle" x="416.2285" y="-216.5" font-family="Helvetica,sans-Serif" font-size="10.00" fill="#000000">channel_id</text>
<text text-anchor="middle" x="416.2285" y="-204.5" font-family="Helvetica,sans-Serif" font-size="10.00" fill="#000000">current_w</text>
<text text-anchor="middle" x="416.2285" y="-192.5" font-family="Helvetica,sans-Serif" font-size="10.00" fill="#000000">daily_wh</text>
<polyline fill="none" stroke="#000000" points="375.0035,-185.5 457.4535,-185.5 "/>
<text text-anchor="middle" x="416.2285" y="-172.5" font-family="Helvetica,sans-Serif" font-size="10.00" fill="#000000">__init()__</text>
<text text-anchor="middle" x="416.2285" y="-160.5" font-family="Helvetica,sans-Serif" font-size="10.00" fill="#000000">__str()__</text>
</g>
<!-- A2 -->
<g id="node3" class="node">
<title>A2</title>
<polygon fill="none" stroke="#000000" points="0,-135.5 0,-267.5 92.457,-267.5 92.457,-135.5 0,-135.5"/>
<text text-anchor="middle" x="46.2285" y="-254.5" font-family="Helvetica,sans-Serif" font-size="10.00" fill="#000000">OwlZone</text>
<polyline fill="none" stroke="#000000" points="0,-247.5 92.457,-247.5 "/>
<text text-anchor="middle" x="46.2285" y="-234.5" font-family="Helvetica,sans-Serif" font-size="10.00" fill="#000000">zone_id</text>
<text text-anchor="middle" x="46.2285" y="-222.5" font-family="Helvetica,sans-Serif" font-size="10.00" fill="#000000">current_temp</text>
<text text-anchor="middle" x="46.2285" y="-210.5" font-family="Helvetica,sans-Serif" font-size="10.00" fill="#000000">required_temp</text>
<text text-anchor="middle" x="46.2285" y="-198.5" font-family="Helvetica,sans-Serif" font-size="10.00" fill="#000000">battery</text>
<text text-anchor="middle" x="46.2285" y="-186.5" font-family="Helvetica,sans-Serif" font-size="10.00" fill="#000000">rssi</text>
<text text-anchor="middle" x="46.2285" y="-174.5" font-family="Helvetica,sans-Serif" font-size="10.00" fill="#000000">lqi</text>
<polyline fill="none" stroke="#000000" points="0,-167.5 92.457,-167.5 "/>
<text text-anchor="middle" x="46.2285" y="-154.5" font-family="Helvetica,sans-Serif" font-size="10.00" fill="#000000">__init()__</text>
<text text-anchor="middle" x="46.2285" y="-142.5" font-family="Helvetica,sans-Serif" font-size="10.00" fill="#000000">__str()__</text>
</g>
<!-- A3 -->
<g id="node4" class="node">
<title>A3</title>
<polygon fill="none" stroke="#000000" points="45.116,-.5 45.116,-84.5 155.341,-84.5 155.341,-.5 45.116,-.5"/>
<text text-anchor="middle" x="100.2285" y="-71.5" font-family="Helvetica,sans-Serif" font-size="10.00" fill="#000000">OwlHotWaterZone</text>
<polyline fill="none" stroke="#000000" points="45.116,-64.5 155.341,-64.5 "/>
<text text-anchor="middle" x="100.2285" y="-51.5" font-family="Helvetica,sans-Serif" font-size="10.00" fill="#000000">ambient_temp</text>
<text text-anchor="middle" x="100.2285" y="-39.5" font-family="Helvetica,sans-Serif" font-size="10.00" fill="#000000">humidity</text>
<polyline fill="none" stroke="#000000" points="45.116,-32.5 155.341,-32.5 "/>
<text text-anchor="middle" x="100.2285" y="-19.5" font-family="Helvetica,sans-Serif" font-size="10.00" fill="#000000">__init()__</text>
<text text-anchor="middle" x="100.2285" y="-7.5" font-family="Helvetica,sans-Serif" font-size="10.00" fill="#000000">__str()__</text>
</g>
<!-- A2&#45;&gt;A3 -->
<g id="edge6" class="edge">
<title>A2&#45;&gt;A3</title>
<path fill="none" stroke="#000000" d="M71.9764,-125.6868C76.7895,-111.5148 81.6558,-97.1863 85.9617,-84.5078"/>
<polygon fill="none" stroke="#000000" points="68.562,-124.8566 68.6602,-135.451 75.1902,-127.1077 68.562,-124.8566"/>
</g>
<!-- A4&#45;&gt;A2 -->
<g id="edge10" class="edge">
<title>A4&#45;&gt;A2</title>
<path fill="none" stroke="#000000" d="M62.1329,-342.2543C60.0319,-323.6603 57.3892,-300.2718 54.8646,-277.9293"/>
<polygon fill="#000000" stroke="#000000" points="53.7153,-267.7583 59.3097,-277.1898 54.2768,-272.7267 54.8382,-277.6951 54.8382,-277.6951 54.8382,-277.6951 54.2768,-272.7267 50.3667,-278.2004 53.7153,-267.7583 53.7153,-267.7583"/>
</g>
<!-- A5&#45;&gt;A3 -->
<g id="edge11" class="edge">
<title>A5&#45;&gt;A3</title>
<path fill="none" stroke="#000000" d="M141.9751,-165.4204C134.8413,-144.4156 125.7264,-117.5772 117.8347,-94.3404"/>
<polygon fill="#000000" stroke="#000000" points="114.5367,-84.6298 122.0136,-92.6514 116.1447,-89.3642 117.7526,-94.0986 117.7526,-94.0986 117.7526,-94.0986 116.1447,-89.3642 113.4916,-95.5457 114.5367,-84.6298 114.5367,-84.6298"/>
</g>
<!-- A6&#45;&gt;A1 -->
<g id="edge7" class="edge">
<title>A6&#45;&gt;A1</title>
<path fill="none" stroke="#000000" d="M260.4308,-325.7771C263.0192,-323.0997 265.6279,-320.4908 268.2285,-318 299.0965,-288.4352 337.0266,-258.6896 366.7598,-236.6555"/>
<polygon fill="#000000" stroke="#000000" points="374.916,-230.6517 369.5302,-240.2039 370.8893,-233.6158 366.8625,-236.5798 366.8625,-236.5798 366.8625,-236.5798 370.8893,-233.6158 364.1949,-232.9558 374.916,-230.6517 374.916,-230.6517"/>
<text text-anchor="middle" x="365.3288" y="-245.2041" font-family="Helvetica,sans-Serif" font-size="10.00" fill="#000000">*</text>
<text text-anchor="middle" x="266.9846" y="-303.8814" font-family="Helvetica,sans-Serif" font-size="10.00" fill="#000000">1</text>
</g>
<!-- A8&#45;&gt;A1 -->
<g id="edge8" class="edge">
<title>A8&#45;&gt;A1</title>
<path fill="none" stroke="#000000" d="M410.3693,-336.1041C409.3976,-313.2724 409.2209,-284.7608 409.8391,-259.863"/>
<polygon fill="#000000" stroke="#000000" points="410.1399,-249.8021 414.339,-259.9321 409.9905,-254.7998 409.841,-259.7976 409.841,-259.7976 409.841,-259.7976 409.9905,-254.7998 405.343,-259.6631 410.1399,-249.8021 410.1399,-249.8021"/>
<text text-anchor="middle" x="401.2315" y="-315.3136" font-family="Helvetica,sans-Serif" font-size="10.00" fill="#000000">exporting</text>
</g>
<!-- A8&#45;&gt;A1 -->
<g id="edge9" class="edge">
<title>A8&#45;&gt;A1</title>
<path fill="none" stroke="#000000" d="M422.0877,-336.1041C423.0594,-313.2724 423.2361,-284.7608 422.6179,-259.863"/>
<polygon fill="#000000" stroke="#000000" points="422.3171,-249.8021 427.114,-259.6631 422.4665,-254.7998 422.616,-259.7976 422.616,-259.7976 422.616,-259.7976 422.4665,-254.7998 418.118,-259.9321 422.3171,-249.8021 422.3171,-249.8021"/>
<text text-anchor="middle" x="431.3074" y="-264.6675" font-family="Helvetica,sans-Serif" font-size="10.00" fill="#000000">generating</text>
</g>
<!-- A9 -->
<g id="node10" class="node">
<title>A9</title>
<polygon fill="none" stroke="#000000" points="288.778,-489.5 288.778,-573.5 405.679,-573.5 405.679,-489.5 288.778,-489.5"/>
<text text-anchor="middle" x="347.2285" y="-560.5" font-family="Helvetica,sans-Serif" font-size="10.00" fill="#000000">OwlIntuitionProtocol</text>
<polyline fill="none" stroke="#000000" points="288.778,-553.5 405.679,-553.5 "/>
<text text-anchor="middle" x="347.2285" y="-540.5" font-family="Helvetica,sans-Serif" font-size="10.00" fill="#000000">datagramReceived</text>
<text text-anchor="middle" x="347.2285" y="-528.5" font-family="Helvetica,sans-Serif" font-size="10.00" fill="#000000">owlRecieved</text>
<polyline fill="none" stroke="#000000" points="288.778,-521.5 405.679,-521.5 "/>
<text text-anchor="middle" x="347.2285" y="-508.5" font-family="Helvetica,sans-Serif" font-size="10.00" fill="#000000">startProtocol()</text>
<text text-anchor="middle" x="347.2285" y="-496.5" font-family="Helvetica,sans-Serif" font-size="10.00" fill="#000000">__init()__</text>
</g>
</g>
</svg>
