<?xml version="1.0" encoding="UTF-8" standalone="no"?>
<!DOCTYPE svg PUBLIC "-//W3C//DTD SVG 1.1//EN"
 "http://www.w3.org/Graphics/SVG/1.1/DTD/svg11.dtd">
<!-- Generated by graphviz version 2.40.1 (20161225.0304)
 -->
<!-- Title: G Pages: 1 -->
<svg width="341pt" height="465pt"
 viewBox="0.00 0.00 341.39 465.00" xmlns="http://www.w3.org/2000/svg" xmlns:xlink="http://www.w3.org/1999/xlink">
<g id="graph0" class="graph" transform="scale(1 1) rotate(0) translate(4 461)">
<title>G</title>
<polygon fill="#ffffff" stroke="transparent" points="-4,4 -4,-461 337.3935,-461 337.3935,4 -4,4"/>
<!-- A0 -->
<g id="node1" class="node">
<title>A0</title>
<polygon fill="none" stroke="#000000" points="66.661,-404.5 66.661,-456.5 127.454,-456.5 127.454,-404.5 66.661,-404.5"/>
<text text-anchor="middle" x="97.0575" y="-443.5" font-family="Helvetica,sans-Serif" font-size="10.00" fill="#000000">heating</text>
<polyline fill="none" stroke="#000000" points="66.661,-436.5 127.454,-436.5 "/>
<text text-anchor="middle" x="97.0575" y="-423.5" font-family="Helvetica,sans-Serif" font-size="10.00" fill="#000000">id</text>
<text text-anchor="middle" x="97.0575" y="-411.5" font-family="Helvetica,sans-Serif" font-size="10.00" fill="#000000">ver</text>
</g>
<!-- A1 -->
<g id="node2" class="node">
<title>A1</title>
<polygon fill="none" stroke="#000000" points="19.0015,-317.5 19.0015,-353.5 93.1135,-353.5 93.1135,-317.5 19.0015,-317.5"/>
<text text-anchor="middle" x="56.0575" y="-332.5" font-family="Helvetica,sans-Serif" font-size="10.00" fill="#000000">timestamp</text>
</g>
<!-- A0&#45;&gt;A1 -->
<g id="edge1" class="edge">
<title>A0&#45;&gt;A1</title>
<path fill="none" stroke="#000000" d="M85.7455,-404.2894C80.1925,-391.4224 73.5053,-375.9277 67.8845,-362.9041"/>
<polygon fill="#000000" stroke="#000000" points="63.8307,-353.511 71.9249,-360.9093 65.812,-358.1018 67.7933,-362.6925 67.7933,-362.6925 67.7933,-362.6925 65.812,-358.1018 63.6616,-364.4756 63.8307,-353.511 63.8307,-353.511"/>
</g>
<!-- A2 -->
<g id="node3" class="node">
<title>A2</title>
<polygon fill="none" stroke="#000000" points="110.719,-317.5 110.719,-353.5 165.396,-353.5 165.396,-317.5 110.719,-317.5"/>
<text text-anchor="middle" x="138.0575" y="-332.5" font-family="Helvetica,sans-Serif" font-size="10.00" fill="#000000">zones</text>
</g>
<!-- A0&#45;&gt;A2 -->
<g id="edge2" class="edge">
<title>A0&#45;&gt;A2</title>
<path fill="none" stroke="#000000" d="M108.3695,-404.2894C113.9225,-391.4224 120.6097,-375.9277 126.2305,-362.9041"/>
<polygon fill="#000000" stroke="#000000" points="130.2843,-353.511 130.4534,-364.4756 128.303,-358.1018 126.3217,-362.6925 126.3217,-362.6925 126.3217,-362.6925 128.303,-358.1018 122.1901,-360.9093 130.2843,-353.511 130.2843,-353.511"/>
</g>
<!-- A3 -->
<g id="node4" class="node">
<title>A3</title>
<polygon fill="none" stroke="#000000" points="111.0575,-214.5 111.0575,-266.5 165.0575,-266.5 165.0575,-214.5 111.0575,-214.5"/>
<text text-anchor="middle" x="137.896" y="-253.5" font-family="Helvetica,sans-Serif" font-size="10.00" fill="#000000">zone</text>
<polyline fill="none" stroke="#000000" points="111.0575,-246.5 164.7345,-246.5 "/>
<text text-anchor="middle" x="137.896" y="-233.5" font-family="Helvetica,sans-Serif" font-size="10.00" fill="#000000">id</text>
<text text-anchor="middle" x="137.896" y="-221.5" font-family="Helvetica,sans-Serif" font-size="10.00" fill="#000000">last</text>
</g>
<!-- A2&#45;&gt;A3 -->
<g id="edge3" class="edge">
<title>A2&#45;&gt;A3</title>
<path fill="none" stroke="#000000" d="M138.0575,-317.183C138.0575,-305.7542 138.0575,-290.6452 138.0575,-276.8621"/>
<polygon fill="#000000" stroke="#000000" points="138.0575,-266.6634 142.5576,-276.6634 138.0575,-271.6634 138.0576,-276.6634 138.0576,-276.6634 138.0576,-276.6634 138.0575,-271.6634 133.5576,-276.6635 138.0575,-266.6634 138.0575,-266.6634"/>
</g>
<!-- A4 -->
<g id="node5" class="node">
<title>A4</title>
<polygon fill="none" stroke="#000000" points="0,-99.5 0,-151.5 54.115,-151.5 54.115,-99.5 0,-99.5"/>
<text text-anchor="middle" x="27.0575" y="-138.5" font-family="Helvetica,sans-Serif" font-size="10.00" fill="#000000">signal</text>
<polyline fill="none" stroke="#000000" points="0,-131.5 54.115,-131.5 "/>
<text text-anchor="middle" x="27.0575" y="-118.5" font-family="Helvetica,sans-Serif" font-size="10.00" fill="#000000">rssi</text>
<text text-anchor="middle" x="27.0575" y="-106.5" font-family="Helvetica,sans-Serif" font-size="10.00" fill="#000000">lqi</text>
</g>
<!-- A3&#45;&gt;A4 -->
<g id="edge4" class="edge">
<title>A3&#45;&gt;A4</title>
<path fill="none" stroke="#000000" d="M112.2169,-214.4488C97.6867,-199.7237 79.2648,-180.9272 63.0575,-164 61.5149,-162.3889 59.9397,-160.7356 58.3521,-159.0626"/>
<polygon fill="#000000" stroke="#000000" points="51.3744,-151.6727 61.5117,-155.8543 54.8071,-155.3082 58.2398,-158.9437 58.2398,-158.9437 58.2398,-158.9437 54.8071,-155.3082 54.9678,-162.0331 51.3744,-151.6727 51.3744,-151.6727"/>
</g>
<!-- A5 -->
<g id="node6" class="node">
<title>A5</title>
<polygon fill="none" stroke="#000000" points="71.7755,-105.5 71.7755,-145.5 130.3395,-145.5 130.3395,-105.5 71.7755,-105.5"/>
<text text-anchor="middle" x="101.0575" y="-132.5" font-family="Helvetica,sans-Serif" font-size="10.00" fill="#000000">battery</text>
<polyline fill="none" stroke="#000000" points="71.7755,-125.5 130.3395,-125.5 "/>
<text text-anchor="middle" x="101.0575" y="-112.5" font-family="Helvetica,sans-Serif" font-size="10.00" fill="#000000">level</text>
</g>
<!-- A3&#45;&gt;A5 -->
<g id="edge5" class="edge">
<title>A3&#45;&gt;A5</title>
<path fill="none" stroke="#000000" d="M129.6616,-214.4047C124.0128,-196.8475 116.5509,-173.6553 110.6649,-155.3609"/>
<polygon fill="#000000" stroke="#000000" points="107.5786,-145.7682 114.9251,-153.9093 109.11,-150.5279 110.6414,-155.2876 110.6414,-155.2876 110.6414,-155.2876 109.11,-150.5279 106.3577,-156.6659 107.5786,-145.7682 107.5786,-145.7682"/>
</g>
<!-- A6 -->
<g id="node7" class="node">
<title>A6</title>
<polygon fill="none" stroke="#000000" points="148.0575,-105.5 148.0575,-145.5 202.0575,-145.5 202.0575,-105.5 148.0575,-105.5"/>
<text text-anchor="middle" x="174.6155" y="-132.5" font-family="Helvetica,sans-Serif" font-size="10.00" fill="#000000">conf</text>
<polyline fill="none" stroke="#000000" points="148.0575,-125.5 201.1735,-125.5 "/>
<text text-anchor="middle" x="174.6155" y="-112.5" font-family="Helvetica,sans-Serif" font-size="10.00" fill="#000000">flags</text>
</g>
<!-- A3&#45;&gt;A6 -->
<g id="edge6" class="edge">
<title>A3&#45;&gt;A6</title>
<path fill="none" stroke="#000000" d="M146.4534,-214.4047C152.1022,-196.8475 159.5641,-173.6553 165.4501,-155.3609"/>
<polygon fill="#000000" stroke="#000000" points="168.5364,-145.7682 169.7573,-156.6659 167.005,-150.5279 165.4736,-155.2876 165.4736,-155.2876 165.4736,-155.2876 167.005,-150.5279 161.1899,-153.9093 168.5364,-145.7682 168.5364,-145.7682"/>
</g>
<!-- A7 -->
<g id="node8" class="node">
<title>A7</title>
<polygon fill="none" stroke="#000000" points="220.108,-87.5 220.108,-163.5 302.007,-163.5 302.007,-87.5 220.108,-87.5"/>
<text text-anchor="middle" x="261.0575" y="-150.5" font-family="Helvetica,sans-Serif" font-size="10.00" fill="#000000">temperature</text>
<polyline fill="none" stroke="#000000" points="220.108,-143.5 302.007,-143.5 "/>
<text text-anchor="middle" x="261.0575" y="-130.5" font-family="Helvetica,sans-Serif" font-size="10.00" fill="#000000">state</text>
<text text-anchor="middle" x="261.0575" y="-118.5" font-family="Helvetica,sans-Serif" font-size="10.00" fill="#000000">flags</text>
<text text-anchor="middle" x="261.0575" y="-106.5" font-family="Helvetica,sans-Serif" font-size="10.00" fill="#000000">until</text>
<text text-anchor="middle" x="261.0575" y="-94.5" font-family="Helvetica,sans-Serif" font-size="10.00" fill="#000000">zone</text>
</g>
<!-- A3&#45;&gt;A7 -->
<g id="edge7" class="edge">
<title>A3&#45;&gt;A7</title>
<path fill="none" stroke="#000000" d="M165.3552,-214.9778C179.3487,-201.8944 196.8063,-185.5723 212.9657,-170.4639"/>
<polygon fill="#000000" stroke="#000000" points="220.2818,-163.6236 216.0505,-173.7403 216.6295,-167.0384 212.9771,-170.4532 212.9771,-170.4532 212.9771,-170.4532 216.6295,-167.0384 209.9038,-167.1661 220.2818,-163.6236 220.2818,-163.6236"/>
</g>
<!-- A8 -->
<g id="node9" class="node">
<title>A8</title>
<polygon fill="none" stroke="#000000" points="191.5005,-.5 191.5005,-36.5 250.6145,-36.5 250.6145,-.5 191.5005,-.5"/>
<text text-anchor="middle" x="221.0575" y="-15.5" font-family="Helvetica,sans-Serif" font-size="10.00" fill="#000000">current</text>
</g>
<!-- A7&#45;&gt;A8 -->
<g id="edge8" class="edge">
<title>A7&#45;&gt;A8</title>
<path fill="none" stroke="#000000" d="M246.8424,-87.4745C241.7394,-73.824 236.0867,-58.703 231.3775,-46.106"/>
<polygon fill="#000000" stroke="#000000" points="227.8316,-36.6208 235.5484,-44.4119 229.5825,-41.3043 231.3333,-45.9877 231.3333,-45.9877 231.3333,-45.9877 229.5825,-41.3043 227.1182,-47.5635 227.8316,-36.6208 227.8316,-36.6208"/>
</g>
<!-- A9 -->
<g id="node10" class="node">
<title>A9</title>
<polygon fill="none" stroke="#000000" points="268.7215,-.5 268.7215,-36.5 333.3935,-36.5 333.3935,-.5 268.7215,-.5"/>
<text text-anchor="middle" x="301.0575" y="-15.5" font-family="Helvetica,sans-Serif" font-size="10.00" fill="#000000">required</text>
</g>
<!-- A7&#45;&gt;A9 -->
<g id="edge9" class="edge">
<title>A7&#45;&gt;A9</title>
<path fill="none" stroke="#000000" d="M275.2726,-87.4745C280.3756,-73.824 286.0283,-58.703 290.7375,-46.106"/>
<polygon fill="#000000" stroke="#000000" points="294.2834,-36.6208 294.9968,-47.5635 292.5325,-41.3043 290.7817,-45.9877 290.7817,-45.9877 290.7817,-45.9877 292.5325,-41.3043 286.5666,-44.4119 294.2834,-36.6208 294.2834,-36.6208"/>
</g>
</g>
</svg>
