<?xml version="1.0" encoding="UTF-8" standalone="no"?>
<!DOCTYPE svg PUBLIC "-//W3C//DTD SVG 1.1//EN"
 "http://www.w3.org/Graphics/SVG/1.1/DTD/svg11.dtd">
<!-- Generated by graphviz version 2.40.1 (20161225.0304)
 -->
<!-- Title: G Pages: 1 -->
<svg width="267pt" height="152pt"
 viewBox="0.00 0.00 266.57 152.00" xmlns="http://www.w3.org/2000/svg" xmlns:xlink="http://www.w3.org/1999/xlink">
<g id="graph0" class="graph" transform="scale(1 1) rotate(0) translate(4 148)">
<title>G</title>
<polygon fill="#ffffff" stroke="transparent" points="-4,4 -4,-148 262.5665,-148 262.5665,4 -4,4"/>
<!-- A0 -->
<g id="node1" class="node">
<title>A0</title>
<polygon fill="none" stroke="#000000" points="103.056,-103.5 103.056,-143.5 157.056,-143.5 157.056,-103.5 103.056,-103.5"/>
<text text-anchor="middle" x="129.889" y="-130.5" font-family="Helvetica,sans-Serif" font-size="10.00" fill="#000000">solar</text>
<polyline fill="none" stroke="#000000" points="103.056,-123.5 156.722,-123.5 "/>
<text text-anchor="middle" x="129.889" y="-110.5" font-family="Helvetica,sans-Serif" font-size="10.00" fill="#000000">id</text>
</g>
<!-- A1 -->
<g id="node2" class="node">
<title>A1</title>
<polygon fill="none" stroke="#000000" points="0,-8.5 0,-44.5 74.112,-44.5 74.112,-8.5 0,-8.5"/>
<text text-anchor="middle" x="37.056" y="-23.5" font-family="Helvetica,sans-Serif" font-size="10.00" fill="#000000">timestamp</text>
</g>
<!-- A0&#45;&gt;A1 -->
<g id="edge1" class="edge">
<title>A0&#45;&gt;A1</title>
<path fill="none" stroke="#000000" d="M110.7863,-103.4015C96.5211,-88.5227 76.9768,-68.1378 61.5946,-52.094"/>
<polygon fill="#000000" stroke="#000000" points="54.4191,-44.6099 64.588,-48.7139 57.8794,-48.219 61.3398,-51.8282 61.3398,-51.8282 61.3398,-51.8282 57.8794,-48.219 58.0915,-54.9425 54.4191,-44.6099 54.4191,-44.6099"/>
</g>
<!-- A2 -->
<g id="node3" class="node">
<title>A2</title>
<polygon fill="none" stroke="#000000" points="92.436,-.5 92.436,-52.5 167.676,-52.5 167.676,-.5 92.436,-.5"/>
<text text-anchor="middle" x="130.056" y="-39.5" font-family="Helvetica,sans-Serif" font-size="10.00" fill="#000000">current_w</text>
<polyline fill="none" stroke="#000000" points="92.436,-32.5 167.676,-32.5 "/>
<text text-anchor="middle" x="130.056" y="-19.5" font-family="Helvetica,sans-Serif" font-size="10.00" fill="#000000">generating</text>
<text text-anchor="middle" x="130.056" y="-7.5" font-family="Helvetica,sans-Serif" font-size="10.00" fill="#000000">exporting</text>
</g>
<!-- A0&#45;&gt;A2 -->
<g id="edge2" class="edge">
<title>A0&#45;&gt;A2</title>
<path fill="none" stroke="#000000" d="M130.056,-103.4015C130.056,-91.7274 130.056,-76.6636 130.056,-62.9665"/>
<polygon fill="#000000" stroke="#000000" points="130.056,-52.8375 134.5561,-62.8375 130.056,-57.8375 130.0561,-62.8375 130.0561,-62.8375 130.0561,-62.8375 130.056,-57.8375 125.5561,-62.8376 130.056,-52.8375 130.056,-52.8375"/>
</g>
<!-- A3 -->
<g id="node4" class="node">
<title>A3</title>
<polygon fill="none" stroke="#000000" points="185.5455,-.5 185.5455,-52.5 258.5665,-52.5 258.5665,-.5 185.5455,-.5"/>
<text text-anchor="middle" x="222.056" y="-39.5" font-family="Helvetica,sans-Serif" font-size="10.00" fill="#000000">day_wh</text>
<polyline fill="none" stroke="#000000" points="185.5455,-32.5 258.5665,-32.5 "/>
<text text-anchor="middle" x="222.056" y="-19.5" font-family="Helvetica,sans-Serif" font-size="10.00" fill="#000000">generated</text>
<text text-anchor="middle" x="222.056" y="-7.5" font-family="Helvetica,sans-Serif" font-size="10.00" fill="#000000">exported</text>
</g>
<!-- A0&#45;&gt;A3 -->
<g id="edge3" class="edge">
<title>A0&#45;&gt;A3</title>
<path fill="none" stroke="#000000" d="M149.1185,-103.4015C160.9507,-90.9262 176.4543,-74.58 190.124,-60.1674"/>
<polygon fill="#000000" stroke="#000000" points="197.0761,-52.8375 193.4595,-63.1899 193.6352,-56.4654 190.1944,-60.0932 190.1944,-60.0932 190.1944,-60.0932 193.6352,-56.4654 186.9294,-56.9964 197.0761,-52.8375 197.0761,-52.8375"/>
</g>
</g>
</svg>
