<?xml version="1.0" encoding="UTF-8" standalone="no"?>
<!DOCTYPE svg PUBLIC "-//W3C//DTD SVG 1.1//EN"
 "http://www.w3.org/Graphics/SVG/1.1/DTD/svg11.dtd">
<!-- Generated by graphviz version 2.40.1 (20161225.0304)
 -->
<!-- Title: G Pages: 1 -->
<svg width="558pt" height="263pt"
 viewBox="0.00 0.00 557.67 263.00" xmlns="http://www.w3.org/2000/svg" xmlns:xlink="http://www.w3.org/1999/xlink">
<g id="graph0" class="graph" transform="scale(1 1) rotate(0) translate(4 259)">
<title>G</title>
<polygon fill="#ffffff" stroke="transparent" points="-4,4 -4,-259 553.6675,-259 553.6675,4 -4,4"/>
<!-- A0 -->
<g id="node1" class="node">
<title>A0</title>
<polygon fill="none" stroke="#000000" points="42.1055,-202.5 42.1055,-254.5 114.0065,-254.5 114.0065,-202.5 42.1055,-202.5"/>
<text text-anchor="middle" x="78.056" y="-241.5" font-family="Helvetica,sans-Serif" font-size="10.00" fill="#000000">hot_water</text>
<polyline fill="none" stroke="#000000" points="42.1055,-234.5 114.0065,-234.5 "/>
<text text-anchor="middle" x="78.056" y="-221.5" font-family="Helvetica,sans-Serif" font-size="10.00" fill="#000000">id</text>
<text text-anchor="middle" x="78.056" y="-209.5" font-family="Helvetica,sans-Serif" font-size="10.00" fill="#000000">ver</text>
</g>
<!-- A1 -->
<g id="node2" class="node">
<title>A1</title>
<polygon fill="none" stroke="#000000" points="0,-101.5 0,-137.5 74.112,-137.5 74.112,-101.5 0,-101.5"/>
<text text-anchor="middle" x="37.056" y="-116.5" font-family="Helvetica,sans-Serif" font-size="10.00" fill="#000000">timestamp</text>
</g>
<!-- A0&#45;&gt;A1 -->
<g id="edge1" class="edge">
<title>A0&#45;&gt;A1</title>
<path fill="none" stroke="#000000" d="M68.2355,-202.3918C61.9379,-185.6494 53.7748,-163.9476 47.3809,-146.9492"/>
<polygon fill="#000000" stroke="#000000" points="43.8482,-137.5574 51.5808,-145.3329 45.6086,-142.2373 47.3689,-146.9172 47.3689,-146.9172 47.3689,-146.9172 45.6086,-142.2373 43.157,-148.5015 43.8482,-137.5574 43.8482,-137.5574"/>
</g>
<!-- A2 -->
<g id="node3" class="node">
<title>A2</title>
<polygon fill="none" stroke="#000000" points="91.7175,-101.5 91.7175,-137.5 146.3945,-137.5 146.3945,-101.5 91.7175,-101.5"/>
<text text-anchor="middle" x="119.056" y="-116.5" font-family="Helvetica,sans-Serif" font-size="10.00" fill="#000000">zones</text>
</g>
<!-- A0&#45;&gt;A2 -->
<g id="edge2" class="edge">
<title>A0&#45;&gt;A2</title>
<path fill="none" stroke="#000000" d="M87.8765,-202.3918C94.1741,-185.6494 102.3372,-163.9476 108.7311,-146.9492"/>
<polygon fill="#000000" stroke="#000000" points="112.2638,-137.5574 112.955,-148.5015 110.5034,-142.2373 108.7431,-146.9172 108.7431,-146.9172 108.7431,-146.9172 110.5034,-142.2373 104.5312,-145.3329 112.2638,-137.5574 112.2638,-137.5574"/>
</g>
<!-- A3 -->
<g id="node4" class="node">
<title>A3</title>
<polygon fill="none" stroke="#000000" points="312.056,-210.5 312.056,-246.5 366.056,-246.5 366.056,-210.5 312.056,-210.5"/>
<text text-anchor="middle" x="338.8945" y="-225.5" font-family="Helvetica,sans-Serif" font-size="10.00" fill="#000000">zone</text>
</g>
<!-- A4 -->
<g id="node5" class="node">
<title>A4</title>
<polygon fill="none" stroke="#000000" points="163.9985,-93.5 163.9985,-145.5 218.1135,-145.5 218.1135,-93.5 163.9985,-93.5"/>
<text text-anchor="middle" x="191.056" y="-132.5" font-family="Helvetica,sans-Serif" font-size="10.00" fill="#000000">signal</text>
<polyline fill="none" stroke="#000000" points="163.9985,-125.5 218.1135,-125.5 "/>
<text text-anchor="middle" x="191.056" y="-112.5" font-family="Helvetica,sans-Serif" font-size="10.00" fill="#000000">rssi</text>
<text text-anchor="middle" x="191.056" y="-100.5" font-family="Helvetica,sans-Serif" font-size="10.00" fill="#000000">lqi</text>
</g>
<!-- A3&#45;&gt;A4 -->
<g id="edge3" class="edge">
<title>A3&#45;&gt;A4</title>
<path fill="none" stroke="#000000" d="M311.6272,-211.2501C288.4931,-196.3547 254.8115,-173.8451 227.056,-152 226.6921,-151.7136 226.3272,-151.4245 225.9615,-151.1329"/>
<polygon fill="#000000" stroke="#000000" points="218.2415,-144.7356 228.8127,-147.6513 222.0915,-147.9259 225.9414,-151.1162 225.9414,-151.1162 225.9414,-151.1162 222.0915,-147.9259 223.0701,-154.5812 218.2415,-144.7356 218.2415,-144.7356"/>
</g>
<!-- A5 -->
<g id="node6" class="node">
<title>A5</title>
<polygon fill="none" stroke="#000000" points="235.774,-99.5 235.774,-139.5 294.338,-139.5 294.338,-99.5 235.774,-99.5"/>
<text text-anchor="middle" x="265.056" y="-126.5" font-family="Helvetica,sans-Serif" font-size="10.00" fill="#000000">battery</text>
<polyline fill="none" stroke="#000000" points="235.774,-119.5 294.338,-119.5 "/>
<text text-anchor="middle" x="265.056" y="-106.5" font-family="Helvetica,sans-Serif" font-size="10.00" fill="#000000">level</text>
</g>
<!-- A3&#45;&gt;A5 -->
<g id="edge4" class="edge">
<title>A3&#45;&gt;A5</title>
<path fill="none" stroke="#000000" d="M326.5029,-210.0096C314.9886,-193.0493 297.7569,-167.6675 284.4689,-148.0947"/>
<polygon fill="#000000" stroke="#000000" points="278.6759,-139.5617 288.0159,-145.3076 281.4843,-143.6985 284.2928,-147.8352 284.2928,-147.8352 284.2928,-147.8352 281.4843,-143.6985 280.5697,-150.3628 278.6759,-139.5617 278.6759,-139.5617"/>
</g>
<!-- A6 -->
<g id="node7" class="node">
<title>A6</title>
<polygon fill="none" stroke="#000000" points="312.056,-99.5 312.056,-139.5 366.056,-139.5 366.056,-99.5 312.056,-99.5"/>
<text text-anchor="middle" x="338.614" y="-126.5" font-family="Helvetica,sans-Serif" font-size="10.00" fill="#000000">conf</text>
<polyline fill="none" stroke="#000000" points="312.056,-119.5 365.172,-119.5 "/>
<text text-anchor="middle" x="338.614" y="-106.5" font-family="Helvetica,sans-Serif" font-size="10.00" fill="#000000">flags</text>
</g>
<!-- A3&#45;&gt;A6 -->
<g id="edge5" class="edge">
<title>A3&#45;&gt;A6</title>
<path fill="none" stroke="#000000" d="M339.056,-210.0096C339.056,-193.5077 339.056,-169.0334 339.056,-149.6942"/>
<polygon fill="#000000" stroke="#000000" points="339.056,-139.5617 343.5561,-149.5617 339.056,-144.5617 339.0561,-149.5617 339.0561,-149.5617 339.0561,-149.5617 339.056,-144.5617 334.5561,-149.5618 339.056,-139.5617 339.056,-139.5617"/>
</g>
<!-- A7 -->
<g id="node8" class="node">
<title>A7</title>
<polygon fill="none" stroke="#000000" points="384.1065,-87.5 384.1065,-151.5 466.0055,-151.5 466.0055,-87.5 384.1065,-87.5"/>
<text text-anchor="middle" x="425.056" y="-138.5" font-family="Helvetica,sans-Serif" font-size="10.00" fill="#000000">temperature</text>
<polyline fill="none" stroke="#000000" points="384.1065,-131.5 466.0055,-131.5 "/>
<text text-anchor="middle" x="425.056" y="-118.5" font-family="Helvetica,sans-Serif" font-size="10.00" fill="#000000">state</text>
<text text-anchor="middle" x="425.056" y="-106.5" font-family="Helvetica,sans-Serif" font-size="10.00" fill="#000000">flags</text>
<text text-anchor="middle" x="425.056" y="-94.5" font-family="Helvetica,sans-Serif" font-size="10.00" fill="#000000">until</text>
</g>
<!-- A3&#45;&gt;A7 -->
<g id="edge6" class="edge">
<title>A3&#45;&gt;A7</title>
<path fill="none" stroke="#000000" d="M353.6447,-210.0096C364.4347,-196.334 379.5448,-177.1828 393.0887,-160.0167"/>
<polygon fill="#000000" stroke="#000000" points="399.5859,-151.7819 396.9246,-162.4199 396.4888,-155.7072 393.3917,-159.6326 393.3917,-159.6326 393.3917,-159.6326 396.4888,-155.7072 389.8589,-156.8452 399.5859,-151.7819 399.5859,-151.7819"/>
</g>
<!-- A11 -->
<g id="node12" class="node">
<title>A11</title>
<polygon fill="none" stroke="#000000" points="484.4445,-101.5 484.4445,-137.5 549.6675,-137.5 549.6675,-101.5 484.4445,-101.5"/>
<text text-anchor="middle" x="517.056" y="-116.5" font-family="Helvetica,sans-Serif" font-size="10.00" fill="#000000">humidity</text>
</g>
<!-- A3&#45;&gt;A11 -->
<g id="edge10" class="edge">
<title>A3&#45;&gt;A11</title>
<path fill="none" stroke="#000000" d="M366.064,-214.8065C394.0097,-200.2948 438.5921,-176.1765 475.056,-152 478.8765,-149.4669 482.7972,-146.6919 486.6351,-143.8644"/>
<polygon fill="#000000" stroke="#000000" points="494.8335,-137.6645 489.5718,-147.2855 490.8455,-140.6804 486.8575,-143.6963 486.8575,-143.6963 486.8575,-143.6963 490.8455,-140.6804 484.1431,-140.1071 494.8335,-137.6645 494.8335,-137.6645"/>
</g>
<!-- A8 -->
<g id="node9" class="node">
<title>A8</title>
<polygon fill="none" stroke="#000000" points="315.499,-.5 315.499,-36.5 374.613,-36.5 374.613,-.5 315.499,-.5"/>
<text text-anchor="middle" x="345.056" y="-15.5" font-family="Helvetica,sans-Serif" font-size="10.00" fill="#000000">current</text>
</g>
<!-- A7&#45;&gt;A8 -->
<g id="edge7" class="edge">
<title>A7&#45;&gt;A8</title>
<path fill="none" stroke="#000000" d="M399.5235,-87.2653C388.6454,-73.5316 376.1173,-57.7149 365.821,-44.7158"/>
<polygon fill="#000000" stroke="#000000" points="359.4168,-36.6306 369.1534,-41.6754 362.5214,-40.55 365.6259,-44.4695 365.6259,-44.4695 365.6259,-44.4695 362.5214,-40.55 362.0984,-47.2635 359.4168,-36.6306 359.4168,-36.6306"/>
</g>
<!-- A9 -->
<g id="node10" class="node">
<title>A9</title>
<polygon fill="none" stroke="#000000" points="392.72,-.5 392.72,-36.5 457.392,-36.5 457.392,-.5 392.72,-.5"/>
<text text-anchor="middle" x="425.056" y="-15.5" font-family="Helvetica,sans-Serif" font-size="10.00" fill="#000000">required</text>
</g>
<!-- A7&#45;&gt;A9 -->
<g id="edge8" class="edge">
<title>A7&#45;&gt;A9</title>
<path fill="none" stroke="#000000" d="M425.056,-87.2653C425.056,-74.3164 425.056,-59.5157 425.056,-46.9709"/>
<polygon fill="#000000" stroke="#000000" points="425.056,-36.6306 429.5561,-46.6305 425.056,-41.6306 425.0561,-46.6306 425.0561,-46.6306 425.0561,-46.6306 425.056,-41.6306 420.5561,-46.6306 425.056,-36.6306 425.056,-36.6306"/>
</g>
<!-- A10 -->
<g id="node11" class="node">
<title>A10</title>
<polygon fill="none" stroke="#000000" points="475.2745,-.5 475.2745,-36.5 538.8375,-36.5 538.8375,-.5 475.2745,-.5"/>
<text text-anchor="middle" x="507.056" y="-15.5" font-family="Helvetica,sans-Serif" font-size="10.00" fill="#000000">ambient</text>
</g>
<!-- A7&#45;&gt;A10 -->
<g id="edge9" class="edge">
<title>A7&#45;&gt;A10</title>
<path fill="none" stroke="#000000" d="M451.2268,-87.2653C462.3769,-73.5316 475.2181,-57.7149 485.7719,-44.7158"/>
<polygon fill="#000000" stroke="#000000" points="492.3361,-36.6306 489.5267,-47.2305 489.1846,-40.5123 486.0331,-44.3941 486.0331,-44.3941 486.0331,-44.3941 489.1846,-40.5123 482.5395,-41.5577 492.3361,-36.6306 492.3361,-36.6306"/>
</g>
</g>
</svg>
