<?xml version="1.0" encoding="UTF-8" standalone="no"?>
<!DOCTYPE svg PUBLIC "-//W3C//DTD SVG 1.1//EN"
 "http://www.w3.org/Graphics/SVG/1.1/DTD/svg11.dtd">
<!-- Generated by graphviz version 2.40.1 (20161225.0304)
 -->
<!-- Title: G Pages: 1 -->
<svg width="544pt" height="366pt"
 viewBox="0.00 0.00 544.12 366.00" xmlns="http://www.w3.org/2000/svg" xmlns:xlink="http://www.w3.org/1999/xlink">
<g id="graph0" class="graph" transform="scale(1 1) rotate(0) translate(4 362)">
<title>G</title>
<polygon fill="#ffffff" stroke="transparent" points="-4,4 -4,-362 540.122,-362 540.122,4 -4,4"/>
<!-- A0 -->
<g id="node1" class="node">
<title>A0</title>
<polygon fill="none" stroke="#000000" points="158.225,-305.5 158.225,-357.5 227.887,-357.5 227.887,-305.5 158.225,-305.5"/>
<text text-anchor="middle" x="193.056" y="-344.5" font-family="Helvetica,sans-Serif" font-size="10.00" fill="#000000">electricity</text>
<polyline fill="none" stroke="#000000" points="158.225,-337.5 227.887,-337.5 "/>
<text text-anchor="middle" x="193.056" y="-324.5" font-family="Helvetica,sans-Serif" font-size="10.00" fill="#000000">id</text>
<text text-anchor="middle" x="193.056" y="-312.5" font-family="Helvetica,sans-Serif" font-size="10.00" fill="#000000">ver</text>
</g>
<!-- A1 -->
<g id="node2" class="node">
<title>A1</title>
<polygon fill="none" stroke="#000000" points="0,-210.5 0,-246.5 74.112,-246.5 74.112,-210.5 0,-210.5"/>
<text text-anchor="middle" x="37.056" y="-225.5" font-family="Helvetica,sans-Serif" font-size="10.00" fill="#000000">timestamp</text>
</g>
<!-- A0&#45;&gt;A1 -->
<g id="edge1" class="edge">
<title>A0&#45;&gt;A1</title>
<path fill="none" stroke="#000000" d="M158.0466,-308.3848C132.8143,-291.725 98.8534,-269.3021 73.3348,-252.4533"/>
<polygon fill="#000000" stroke="#000000" points="64.6888,-246.7447 75.5134,-248.4994 68.8614,-249.4997 73.0339,-252.2547 73.0339,-252.2547 73.0339,-252.2547 68.8614,-249.4997 70.5544,-256.01 64.6888,-246.7447 64.6888,-246.7447"/>
</g>
<!-- A2 -->
<g id="node3" class="node">
<title>A2</title>
<polygon fill="none" stroke="#000000" points="91.9985,-202.5 91.9985,-254.5 146.1135,-254.5 146.1135,-202.5 91.9985,-202.5"/>
<text text-anchor="middle" x="119.056" y="-241.5" font-family="Helvetica,sans-Serif" font-size="10.00" fill="#000000">signal</text>
<polyline fill="none" stroke="#000000" points="91.9985,-234.5 146.1135,-234.5 "/>
<text text-anchor="middle" x="119.056" y="-221.5" font-family="Helvetica,sans-Serif" font-size="10.00" fill="#000000">rssi</text>
<text text-anchor="middle" x="119.056" y="-209.5" font-family="Helvetica,sans-Serif" font-size="10.00" fill="#000000">lqi</text>
</g>
<!-- A0&#45;&gt;A2 -->
<g id="edge2" class="edge">
<title>A0&#45;&gt;A2</title>
<path fill="none" stroke="#000000" d="M174.1912,-305.2422C164.9713,-292.4091 153.7554,-276.7978 143.8528,-263.0145"/>
<polygon fill="#000000" stroke="#000000" points="137.8863,-254.7098 147.3757,-260.2055 140.8037,-258.7705 143.7211,-262.8311 143.7211,-262.8311 143.7211,-262.8311 140.8037,-258.7705 140.0665,-265.4568 137.8863,-254.7098 137.8863,-254.7098"/>
</g>
<!-- A3 -->
<g id="node4" class="node">
<title>A3</title>
<polygon fill="none" stroke="#000000" points="163.774,-208.5 163.774,-248.5 222.338,-248.5 222.338,-208.5 163.774,-208.5"/>
<text text-anchor="middle" x="193.056" y="-235.5" font-family="Helvetica,sans-Serif" font-size="10.00" fill="#000000">battery</text>
<polyline fill="none" stroke="#000000" points="163.774,-228.5 222.338,-228.5 "/>
<text text-anchor="middle" x="193.056" y="-215.5" font-family="Helvetica,sans-Serif" font-size="10.00" fill="#000000">level</text>
</g>
<!-- A0&#45;&gt;A3 -->
<g id="edge3" class="edge">
<title>A0&#45;&gt;A3</title>
<path fill="none" stroke="#000000" d="M193.056,-305.2422C193.056,-291.0457 193.056,-273.4494 193.056,-258.6888"/>
<polygon fill="#000000" stroke="#000000" points="193.056,-248.5313 197.5561,-258.5312 193.056,-253.5313 193.0561,-258.5313 193.0561,-258.5313 193.0561,-258.5313 193.056,-253.5313 188.5561,-258.5313 193.056,-248.5313 193.056,-248.5313"/>
</g>
<!-- A4 -->
<g id="node5" class="node">
<title>A4</title>
<polygon fill="none" stroke="#000000" points="240.049,-208.5 240.049,-248.5 308.063,-248.5 308.063,-208.5 240.049,-208.5"/>
<text text-anchor="middle" x="274.056" y="-235.5" font-family="Helvetica,sans-Serif" font-size="10.00" fill="#000000">channels</text>
<polyline fill="none" stroke="#000000" points="240.049,-228.5 308.063,-228.5 "/>
<text text-anchor="middle" x="274.056" y="-215.5" font-family="Helvetica,sans-Serif" font-size="10.00" fill="#000000">chan</text>
</g>
<!-- A0&#45;&gt;A4 -->
<g id="edge4" class="edge">
<title>A0&#45;&gt;A4</title>
<path fill="none" stroke="#000000" d="M213.7053,-305.2422C225.4115,-290.3566 240.0573,-271.733 251.9894,-256.56"/>
<polygon fill="#000000" stroke="#000000" points="258.3033,-248.5313 255.6589,-259.1735 255.2125,-252.4615 252.1216,-256.3918 252.1216,-256.3918 252.1216,-256.3918 255.2125,-252.4615 248.5844,-253.6101 258.3033,-248.5313 258.3033,-248.5313"/>
</g>
<!-- A8 -->
<g id="node9" class="node">
<title>A8</title>
<polygon fill="none" stroke="#000000" points="358.7195,-210.5 358.7195,-246.5 423.3925,-246.5 423.3925,-210.5 358.7195,-210.5"/>
<text text-anchor="middle" x="391.056" y="-225.5" font-family="Helvetica,sans-Serif" font-size="10.00" fill="#000000">property</text>
</g>
<!-- A0&#45;&gt;A8 -->
<g id="edge8" class="edge">
<title>A0&#45;&gt;A8</title>
<path fill="none" stroke="#000000" d="M227.9986,-313.3228C261.8335,-295.7218 313.1623,-269.0205 349.1704,-250.289"/>
<polygon fill="#000000" stroke="#000000" points="358.4331,-245.4705 351.6384,-254.0776 353.9974,-247.778 349.5617,-250.0855 349.5617,-250.0855 349.5617,-250.0855 353.9974,-247.778 347.4849,-246.0933 358.4331,-245.4705 358.4331,-245.4705"/>
</g>
<!-- A5 -->
<g id="node6" class="node">
<title>A5</title>
<polygon fill="none" stroke="#000000" points="230.056,-99.5 230.056,-139.5 284.056,-139.5 284.056,-99.5 230.056,-99.5"/>
<text text-anchor="middle" x="256.8945" y="-126.5" font-family="Helvetica,sans-Serif" font-size="10.00" fill="#000000">chan</text>
<polyline fill="none" stroke="#000000" points="230.056,-119.5 283.733,-119.5 "/>
<text text-anchor="middle" x="256.8945" y="-106.5" font-family="Helvetica,sans-Serif" font-size="10.00" fill="#000000">id</text>
</g>
<!-- A4&#45;&gt;A5 -->
<g id="edge5" class="edge">
<title>A4&#45;&gt;A5</title>
<path fill="none" stroke="#000000" d="M270.8983,-208.2534C268.3338,-191.8108 264.6784,-168.373 261.7679,-149.7116"/>
<polygon fill="#000000" stroke="#000000" points="260.1968,-139.6382 266.1842,-148.8252 260.9674,-144.5785 261.7379,-149.5187 261.7379,-149.5187 261.7379,-149.5187 260.9674,-144.5785 257.2917,-150.2122 260.1968,-139.6382 260.1968,-139.6382"/>
</g>
<!-- A6 -->
<g id="node7" class="node">
<title>A6</title>
<polygon fill="none" stroke="#000000" points="179.5,-.5 179.5,-36.5 248.612,-36.5 248.612,-.5 179.5,-.5"/>
<text text-anchor="middle" x="214.056" y="-15.5" font-family="Helvetica,sans-Serif" font-size="10.00" fill="#000000">curr units</text>
</g>
<!-- A5&#45;&gt;A6 -->
<g id="edge6" class="edge">
<title>A5&#45;&gt;A6</title>
<path fill="none" stroke="#000000" d="M248.3543,-99.0611C241.8308,-83.7384 232.8356,-62.6103 225.6939,-45.8355"/>
<polygon fill="#000000" stroke="#000000" points="221.7358,-36.5386 229.7934,-43.9767 223.6944,-41.139 225.653,-45.7394 225.653,-45.7394 225.653,-45.7394 223.6944,-41.139 221.5127,-47.5022 221.7358,-36.5386 221.7358,-36.5386"/>
</g>
<!-- A7 -->
<g id="node8" class="node">
<title>A7</title>
<polygon fill="none" stroke="#000000" points="267.0495,-.5 267.0495,-36.5 335.0625,-36.5 335.0625,-.5 267.0495,-.5"/>
<text text-anchor="middle" x="301.056" y="-15.5" font-family="Helvetica,sans-Serif" font-size="10.00" fill="#000000">day units</text>
</g>
<!-- A5&#45;&gt;A7 -->
<g id="edge7" class="edge">
<title>A5&#45;&gt;A7</title>
<path fill="none" stroke="#000000" d="M265.9601,-99.0611C272.6353,-83.7384 281.8397,-62.6103 289.1475,-45.8355"/>
<polygon fill="#000000" stroke="#000000" points="293.1976,-36.5386 293.3292,-47.5037 291.2006,-41.1225 289.2037,-45.7064 289.2037,-45.7064 289.2037,-45.7064 291.2006,-41.1225 285.0781,-43.9091 293.1976,-36.5386 293.1976,-36.5386"/>
</g>
<!-- A9 -->
<g id="node10" class="node">
<title>A9</title>
<polygon fill="none" stroke="#000000" points="302.499,-93.5 302.499,-145.5 361.613,-145.5 361.613,-93.5 302.499,-93.5"/>
<text text-anchor="middle" x="332.056" y="-132.5" font-family="Helvetica,sans-Serif" font-size="10.00" fill="#000000">current</text>
<polyline fill="none" stroke="#000000" points="302.499,-125.5 361.613,-125.5 "/>
<text text-anchor="middle" x="332.056" y="-112.5" font-family="Helvetica,sans-Serif" font-size="10.00" fill="#000000">watts</text>
<text text-anchor="middle" x="332.056" y="-100.5" font-family="Helvetica,sans-Serif" font-size="10.00" fill="#000000">cost</text>
</g>
<!-- A8&#45;&gt;A9 -->
<g id="edge9" class="edge">
<title>A8&#45;&gt;A9</title>
<path fill="none" stroke="#000000" d="M381.0475,-210.0096C372.8912,-194.9412 361.1367,-173.2254 351.186,-154.8418"/>
<polygon fill="#000000" stroke="#000000" points="346.323,-145.8576 355.0407,-152.5098 348.7031,-150.2548 351.0833,-154.652 351.0833,-154.652 351.0833,-154.652 348.7031,-150.2548 347.1258,-156.7941 346.323,-145.8576 346.323,-145.8576"/>
</g>
<!-- A10 -->
<g id="node11" class="node">
<title>A10</title>
<polygon fill="none" stroke="#000000" points="380.056,-93.5 380.056,-145.5 434.056,-145.5 434.056,-93.5 380.056,-93.5"/>
<text text-anchor="middle" x="406.725" y="-132.5" font-family="Helvetica,sans-Serif" font-size="10.00" fill="#000000">day</text>
<polyline fill="none" stroke="#000000" points="380.056,-125.5 433.394,-125.5 "/>
<text text-anchor="middle" x="406.725" y="-112.5" font-family="Helvetica,sans-Serif" font-size="10.00" fill="#000000">wh</text>
<text text-anchor="middle" x="406.725" y="-100.5" font-family="Helvetica,sans-Serif" font-size="10.00" fill="#000000">cost</text>
</g>
<!-- A8&#45;&gt;A10 -->
<g id="edge10" class="edge">
<title>A8&#45;&gt;A10</title>
<path fill="none" stroke="#000000" d="M393.7702,-210.0096C395.9417,-195.2165 399.0536,-174.0164 401.7199,-155.8524"/>
<polygon fill="#000000" stroke="#000000" points="403.187,-145.8576 406.1869,-156.4052 402.4608,-150.8046 401.7346,-155.7516 401.7346,-155.7516 401.7346,-155.7516 402.4608,-150.8046 397.2823,-155.098 403.187,-145.8576 403.187,-145.8576"/>
</g>
<!-- A11 -->
<g id="node12" class="node">
<title>A11</title>
<polygon fill="none" stroke="#000000" points="451.99,-87.5 451.99,-151.5 536.122,-151.5 536.122,-87.5 451.99,-87.5"/>
<text text-anchor="middle" x="494.056" y="-138.5" font-family="Helvetica,sans-Serif" font-size="10.00" fill="#000000">tariff</text>
<polyline fill="none" stroke="#000000" points="451.99,-131.5 536.122,-131.5 "/>
<text text-anchor="middle" x="494.056" y="-118.5" font-family="Helvetica,sans-Serif" font-size="10.00" fill="#000000">curr_price</text>
<text text-anchor="middle" x="494.056" y="-106.5" font-family="Helvetica,sans-Serif" font-size="10.00" fill="#000000">block_limit</text>
<text text-anchor="middle" x="494.056" y="-94.5" font-family="Helvetica,sans-Serif" font-size="10.00" fill="#000000">block_usage</text>
</g>
<!-- A8&#45;&gt;A11 -->
<g id="edge11" class="edge">
<title>A8&#45;&gt;A11</title>
<path fill="none" stroke="#000000" d="M408.5285,-210.0096C421.6864,-196.0853 440.2081,-176.4846 456.6524,-159.0824"/>
<polygon fill="#000000" stroke="#000000" points="463.5511,-151.7819 459.9536,-162.1409 460.117,-155.416 456.6829,-159.0502 456.6829,-159.0502 456.6829,-159.0502 460.117,-155.416 453.4121,-155.9595 463.5511,-151.7819 463.5511,-151.7819"/>
</g>
</g>
</svg>
