<?xml version="1.0" encoding="UTF-8" standalone="no"?>
<!DOCTYPE svg PUBLIC "-//W3C//DTD SVG 1.1//EN"
 "http://www.w3.org/Graphics/SVG/1.1/DTD/svg11.dtd">
<!-- Generated by graphviz version 2.40.1 (20161225.0304)
 -->
<!-- Title: G Pages: 1 -->
<svg width="394pt" height="453pt"
 viewBox="0.00 0.00 393.67 453.00" xmlns="http://www.w3.org/2000/svg" xmlns:xlink="http://www.w3.org/1999/xlink">
<g id="graph0" class="graph" transform="scale(1 1) rotate(0) translate(4 449)">
<title>G</title>
<polygon fill="#ffffff" stroke="transparent" points="-4,4 -4,-449 389.669,-449 389.669,4 -4,4"/>
<!-- A0 -->
<g id="node1" class="node">
<title>A0</title>
<polygon fill="none" stroke="#000000" points="98.107,-392.5 98.107,-444.5 170.008,-444.5 170.008,-392.5 98.107,-392.5"/>
<text text-anchor="middle" x="134.0575" y="-431.5" font-family="Helvetica,sans-Serif" font-size="10.00" fill="#000000">hot_water</text>
<polyline fill="none" stroke="#000000" points="98.107,-424.5 170.008,-424.5 "/>
<text text-anchor="middle" x="134.0575" y="-411.5" font-family="Helvetica,sans-Serif" font-size="10.00" fill="#000000">id</text>
<text text-anchor="middle" x="134.0575" y="-399.5" font-family="Helvetica,sans-Serif" font-size="10.00" fill="#000000">ver</text>
</g>
<!-- A1 -->
<g id="node2" class="node">
<title>A1</title>
<polygon fill="none" stroke="#000000" points="56.0015,-305.5 56.0015,-341.5 130.1135,-341.5 130.1135,-305.5 56.0015,-305.5"/>
<text text-anchor="middle" x="93.0575" y="-320.5" font-family="Helvetica,sans-Serif" font-size="10.00" fill="#000000">timestamp</text>
</g>
<!-- A0&#45;&gt;A1 -->
<g id="edge1" class="edge">
<title>A0&#45;&gt;A1</title>
<path fill="none" stroke="#000000" d="M122.7455,-392.2894C117.1925,-379.4224 110.5053,-363.9277 104.8845,-350.9041"/>
<polygon fill="#000000" stroke="#000000" points="100.8307,-341.511 108.9249,-348.9093 102.812,-346.1018 104.7933,-350.6925 104.7933,-350.6925 104.7933,-350.6925 102.812,-346.1018 100.6616,-352.4756 100.8307,-341.511 100.8307,-341.511"/>
</g>
<!-- A2 -->
<g id="node3" class="node">
<title>A2</title>
<polygon fill="none" stroke="#000000" points="147.719,-305.5 147.719,-341.5 202.396,-341.5 202.396,-305.5 147.719,-305.5"/>
<text text-anchor="middle" x="175.0575" y="-320.5" font-family="Helvetica,sans-Serif" font-size="10.00" fill="#000000">zones</text>
</g>
<!-- A0&#45;&gt;A2 -->
<g id="edge2" class="edge">
<title>A0&#45;&gt;A2</title>
<path fill="none" stroke="#000000" d="M145.3695,-392.2894C150.9225,-379.4224 157.6097,-363.9277 163.2305,-350.9041"/>
<polygon fill="#000000" stroke="#000000" points="167.2843,-341.511 167.4534,-352.4756 165.303,-346.1018 163.3217,-350.6925 163.3217,-350.6925 163.3217,-350.6925 165.303,-346.1018 159.1901,-348.9093 167.2843,-341.511 167.2843,-341.511"/>
</g>
<!-- A3 -->
<g id="node4" class="node">
<title>A3</title>
<polygon fill="none" stroke="#000000" points="148.0575,-202.5 148.0575,-254.5 202.0575,-254.5 202.0575,-202.5 148.0575,-202.5"/>
<text text-anchor="middle" x="174.896" y="-241.5" font-family="Helvetica,sans-Serif" font-size="10.00" fill="#000000">zone</text>
<polyline fill="none" stroke="#000000" points="148.0575,-234.5 201.7345,-234.5 "/>
<text text-anchor="middle" x="174.896" y="-221.5" font-family="Helvetica,sans-Serif" font-size="10.00" fill="#000000">id</text>
<text text-anchor="middle" x="174.896" y="-209.5" font-family="Helvetica,sans-Serif" font-size="10.00" fill="#000000">last</text>
</g>
<!-- A2&#45;&gt;A3 -->
<g id="edge3" class="edge">
<title>A2&#45;&gt;A3</title>
<path fill="none" stroke="#000000" d="M175.0575,-305.183C175.0575,-293.7542 175.0575,-278.6452 175.0575,-264.8621"/>
<polygon fill="#000000" stroke="#000000" points="175.0575,-254.6634 179.5576,-264.6634 175.0575,-259.6634 175.0576,-264.6634 175.0576,-264.6634 175.0576,-264.6634 175.0575,-259.6634 170.5576,-264.6635 175.0575,-254.6634 175.0575,-254.6634"/>
</g>
<!-- A4 -->
<g id="node5" class="node">
<title>A4</title>
<polygon fill="none" stroke="#000000" points="0,-93.5 0,-145.5 54.115,-145.5 54.115,-93.5 0,-93.5"/>
<text text-anchor="middle" x="27.0575" y="-132.5" font-family="Helvetica,sans-Serif" font-size="10.00" fill="#000000">signal</text>
<polyline fill="none" stroke="#000000" points="0,-125.5 54.115,-125.5 "/>
<text text-anchor="middle" x="27.0575" y="-112.5" font-family="Helvetica,sans-Serif" font-size="10.00" fill="#000000">rssi</text>
<text text-anchor="middle" x="27.0575" y="-100.5" font-family="Helvetica,sans-Serif" font-size="10.00" fill="#000000">lqi</text>
</g>
<!-- A3&#45;&gt;A4 -->
<g id="edge4" class="edge">
<title>A3&#45;&gt;A4</title>
<path fill="none" stroke="#000000" d="M147.6287,-211.2501C124.4946,-196.3547 90.813,-173.8451 63.0575,-152 62.6936,-151.7136 62.3287,-151.4245 61.963,-151.1329"/>
<polygon fill="#000000" stroke="#000000" points="54.243,-144.7356 64.8142,-147.6513 58.093,-147.9259 61.9429,-151.1162 61.9429,-151.1162 61.9429,-151.1162 58.093,-147.9259 59.0716,-154.5812 54.243,-144.7356 54.243,-144.7356"/>
</g>
<!-- A5 -->
<g id="node6" class="node">
<title>A5</title>
<polygon fill="none" stroke="#000000" points="71.7755,-99.5 71.7755,-139.5 130.3395,-139.5 130.3395,-99.5 71.7755,-99.5"/>
<text text-anchor="middle" x="101.0575" y="-126.5" font-family="Helvetica,sans-Serif" font-size="10.00" fill="#000000">battery</text>
<polyline fill="none" stroke="#000000" points="71.7755,-119.5 130.3395,-119.5 "/>
<text text-anchor="middle" x="101.0575" y="-106.5" font-family="Helvetica,sans-Serif" font-size="10.00" fill="#000000">level</text>
</g>
<!-- A3&#45;&gt;A5 -->
<g id="edge5" class="edge">
<title>A3&#45;&gt;A5</title>
<path fill="none" stroke="#000000" d="M157.3327,-202.3918C146.1908,-185.9801 131.8136,-164.8028 120.3802,-147.9618"/>
<polygon fill="#000000" stroke="#000000" points="114.7023,-139.5984 124.0423,-145.3444 117.5108,-143.7352 120.3192,-147.872 120.3192,-147.872 120.3192,-147.872 117.5108,-143.7352 116.5961,-150.3996 114.7023,-139.5984 114.7023,-139.5984"/>
</g>
<!-- A6 -->
<g id="node7" class="node">
<title>A6</title>
<polygon fill="none" stroke="#000000" points="148.0575,-99.5 148.0575,-139.5 202.0575,-139.5 202.0575,-99.5 148.0575,-99.5"/>
<text text-anchor="middle" x="174.6155" y="-126.5" font-family="Helvetica,sans-Serif" font-size="10.00" fill="#000000">conf</text>
<polyline fill="none" stroke="#000000" points="148.0575,-119.5 201.1735,-119.5 "/>
<text text-anchor="middle" x="174.6155" y="-106.5" font-family="Helvetica,sans-Serif" font-size="10.00" fill="#000000">flags</text>
</g>
<!-- A3&#45;&gt;A6 -->
<g id="edge6" class="edge">
<title>A3&#45;&gt;A6</title>
<path fill="none" stroke="#000000" d="M175.0575,-202.3918C175.0575,-186.5824 175.0575,-166.3507 175.0575,-149.8329"/>
<polygon fill="#000000" stroke="#000000" points="175.0575,-139.5984 179.5576,-149.5984 175.0575,-144.5984 175.0576,-149.5984 175.0576,-149.5984 175.0576,-149.5984 175.0575,-144.5984 170.5576,-149.5985 175.0575,-139.5984 175.0575,-139.5984"/>
</g>
<!-- A7 -->
<g id="node8" class="node">
<title>A7</title>
<polygon fill="none" stroke="#000000" points="220.108,-87.5 220.108,-151.5 302.007,-151.5 302.007,-87.5 220.108,-87.5"/>
<text text-anchor="middle" x="261.0575" y="-138.5" font-family="Helvetica,sans-Serif" font-size="10.00" fill="#000000">temperature</text>
<polyline fill="none" stroke="#000000" points="220.108,-131.5 302.007,-131.5 "/>
<text text-anchor="middle" x="261.0575" y="-118.5" font-family="Helvetica,sans-Serif" font-size="10.00" fill="#000000">state</text>
<text text-anchor="middle" x="261.0575" y="-106.5" font-family="Helvetica,sans-Serif" font-size="10.00" fill="#000000">flags</text>
<text text-anchor="middle" x="261.0575" y="-94.5" font-family="Helvetica,sans-Serif" font-size="10.00" fill="#000000">until</text>
</g>
<!-- A3&#45;&gt;A7 -->
<g id="edge7" class="edge">
<title>A3&#45;&gt;A7</title>
<path fill="none" stroke="#000000" d="M195.6566,-202.3918C205.7092,-189.6508 218.0279,-174.0375 229.2527,-159.8108"/>
<polygon fill="#000000" stroke="#000000" points="235.7098,-151.6267 233.0485,-162.2647 232.6128,-155.552 229.5157,-159.4774 229.5157,-159.4774 229.5157,-159.4774 232.6128,-155.552 225.9829,-156.69 235.7098,-151.6267 235.7098,-151.6267"/>
</g>
<!-- A11 -->
<g id="node12" class="node">
<title>A11</title>
<polygon fill="none" stroke="#000000" points="320.446,-101.5 320.446,-137.5 385.669,-137.5 385.669,-101.5 320.446,-101.5"/>
<text text-anchor="middle" x="353.0575" y="-116.5" font-family="Helvetica,sans-Serif" font-size="10.00" fill="#000000">humidity</text>
</g>
<!-- A3&#45;&gt;A11 -->
<g id="edge11" class="edge">
<title>A3&#45;&gt;A11</title>
<path fill="none" stroke="#000000" d="M202.0655,-214.8065C230.0112,-200.2948 274.5936,-176.1765 311.0575,-152 314.878,-149.4669 318.7987,-146.6919 322.6366,-143.8644"/>
<polygon fill="#000000" stroke="#000000" points="330.835,-137.6645 325.5733,-147.2855 326.847,-140.6804 322.859,-143.6963 322.859,-143.6963 322.859,-143.6963 326.847,-140.6804 320.1446,-140.1071 330.835,-137.6645 330.835,-137.6645"/>
</g>
<!-- A8 -->
<g id="node9" class="node">
<title>A8</title>
<polygon fill="none" stroke="#000000" points="151.5005,-.5 151.5005,-36.5 210.6145,-36.5 210.6145,-.5 151.5005,-.5"/>
<text text-anchor="middle" x="181.0575" y="-15.5" font-family="Helvetica,sans-Serif" font-size="10.00" fill="#000000">current</text>
</g>
<!-- A7&#45;&gt;A8 -->
<g id="edge8" class="edge">
<title>A7&#45;&gt;A8</title>
<path fill="none" stroke="#000000" d="M235.525,-87.2653C224.6469,-73.5316 212.1188,-57.7149 201.8225,-44.7158"/>
<polygon fill="#000000" stroke="#000000" points="195.4183,-36.6306 205.1549,-41.6754 198.5229,-40.55 201.6274,-44.4695 201.6274,-44.4695 201.6274,-44.4695 198.5229,-40.55 198.0999,-47.2635 195.4183,-36.6306 195.4183,-36.6306"/>
</g>
<!-- A9 -->
<g id="node10" class="node">
<title>A9</title>
<polygon fill="none" stroke="#000000" points="228.7215,-.5 228.7215,-36.5 293.3935,-36.5 293.3935,-.5 228.7215,-.5"/>
<text text-anchor="middle" x="261.0575" y="-15.5" font-family="Helvetica,sans-Serif" font-size="10.00" fill="#000000">required</text>
</g>
<!-- A7&#45;&gt;A9 -->
<g id="edge9" class="edge">
<title>A7&#45;&gt;A9</title>
<path fill="none" stroke="#000000" d="M261.0575,-87.2653C261.0575,-74.3164 261.0575,-59.5157 261.0575,-46.9709"/>
<polygon fill="#000000" stroke="#000000" points="261.0575,-36.6306 265.5576,-46.6305 261.0575,-41.6306 261.0576,-46.6306 261.0576,-46.6306 261.0576,-46.6306 261.0575,-41.6306 256.5576,-46.6306 261.0575,-36.6306 261.0575,-36.6306"/>
</g>
<!-- A10 -->
<g id="node11" class="node">
<title>A10</title>
<polygon fill="none" stroke="#000000" points="311.276,-.5 311.276,-36.5 374.839,-36.5 374.839,-.5 311.276,-.5"/>
<text text-anchor="middle" x="343.0575" y="-15.5" font-family="Helvetica,sans-Serif" font-size="10.00" fill="#000000">ambient</text>
</g>
<!-- A7&#45;&gt;A10 -->
<g id="edge10" class="edge">
<title>A7&#45;&gt;A10</title>
<path fill="none" stroke="#000000" d="M287.2283,-87.2653C298.3784,-73.5316 311.2196,-57.7149 321.7734,-44.7158"/>
<polygon fill="#000000" stroke="#000000" points="328.3376,-36.6306 325.5282,-47.2305 325.1861,-40.5123 322.0346,-44.3941 322.0346,-44.3941 322.0346,-44.3941 325.1861,-40.5123 318.541,-41.5577 328.3376,-36.6306 328.3376,-36.6306"/>
</g>
</g>
</svg>
