<?xml version="1.0" encoding="UTF-8" standalone="no"?>
<!DOCTYPE svg PUBLIC "-//W3C//DTD SVG 1.1//EN"
 "http://www.w3.org/Graphics/SVG/1.1/DTD/svg11.dtd">
<!-- Generated by graphviz version 2.40.1 (20161225.0304)
 -->
<!-- Title: G Pages: 1 -->
<svg width="477pt" height="676pt"
 viewBox="0.00 0.00 477.23 676.00" xmlns="http://www.w3.org/2000/svg" xmlns:xlink="http://www.w3.org/1999/xlink">
<g id="graph0" class="graph" transform="scale(1 1) rotate(0) translate(4 672)">
<title>G</title>
<polygon fill="#ffffff" stroke="transparent" points="-4,4 -4,-672 473.2273,-672 473.2273,4 -4,4"/>
<!-- A0 -->
<g id="node1" class="node">
<title>A0</title>
<polygon fill="none" stroke="#000000" points="231.2708,-621.5 231.2708,-661.5 333.1708,-661.5 333.1708,-621.5 231.2708,-621.5"/>
<text text-anchor="middle" x="282.2208" y="-648.5" font-family="Helvetica,sans-Serif" font-size="10.00" fill="#000000">OwlMessage_v1</text>
<polyline fill="none" stroke="#000000" points="231.2708,-641.5 333.1708,-641.5 "/>
<text text-anchor="middle" x="282.2208" y="-628.5" font-family="Helvetica,sans-Serif" font-size="10.00" fill="#000000">id : mac address</text>
</g>
<!-- A1 -->
<g id="node2" class="node">
<title>A1</title>
<polygon fill="none" stroke="#000000" points="105.4898,-496.5 105.4898,-548.5 172.9518,-548.5 172.9518,-496.5 105.4898,-496.5"/>
<text text-anchor="middle" x="139.2208" y="-535.5" font-family="Helvetica,sans-Serif" font-size="10.00" fill="#000000">solar</text>
<polyline fill="none" stroke="#000000" points="105.4898,-528.5 172.9518,-528.5 "/>
<text text-anchor="middle" x="139.2208" y="-515.5" font-family="Helvetica,sans-Serif" font-size="10.00" fill="#000000">generate</text>
<text text-anchor="middle" x="139.2208" y="-503.5" font-family="Helvetica,sans-Serif" font-size="10.00" fill="#000000"> export</text>
</g>
<!-- A0&#45;&gt;A1 -->
<g id="edge1" class="edge">
<title>A0&#45;&gt;A1</title>
<path fill="none" stroke="#000000" d="M250.2554,-614.8994C226.4952,-595.1269 194.2396,-568.2848 170.6166,-548.6266"/>
<polygon fill="none" stroke="#000000" points="248.0374,-617.607 257.9628,-621.3133 252.515,-612.2264 248.0374,-617.607"/>
</g>
<!-- A2 -->
<g id="node3" class="node">
<title>A2</title>
<polygon fill="none" stroke="#000000" points="352.5973,-480.5 352.5973,-564.5 447.8443,-564.5 447.8443,-480.5 352.5973,-480.5"/>
<text text-anchor="middle" x="400.2208" y="-551.5" font-family="Helvetica,sans-Serif" font-size="10.00" fill="#000000">weather</text>
<polyline fill="none" stroke="#000000" points="352.5973,-544.5 447.8443,-544.5 "/>
<text text-anchor="middle" x="400.2208" y="-531.5" font-family="Helvetica,sans-Serif" font-size="10.00" fill="#000000">code : weather</text>
<text text-anchor="middle" x="400.2208" y="-519.5" font-family="Helvetica,sans-Serif" font-size="10.00" fill="#000000">condition code </text>
<polyline fill="none" stroke="#000000" points="352.5973,-512.5 447.8443,-512.5 "/>
<text text-anchor="middle" x="400.2208" y="-499.5" font-family="Helvetica,sans-Serif" font-size="10.00" fill="#000000">temperature</text>
<text text-anchor="middle" x="400.2208" y="-487.5" font-family="Helvetica,sans-Serif" font-size="10.00" fill="#000000">text</text>
</g>
<!-- A0&#45;&gt;A2 -->
<g id="edge2" class="edge">
<title>A0&#45;&gt;A2</title>
<path fill="none" stroke="#000000" d="M309.4832,-614.0066C324.0341,-599.3324 342.2519,-580.9602 358.538,-564.536"/>
<polygon fill="none" stroke="#000000" points="306.7938,-611.748 302.2379,-621.3133 311.7644,-616.6768 306.7938,-611.748"/>
</g>
<!-- A4 -->
<g id="node5" class="node">
<title>A4</title>
<polygon fill="none" stroke="#000000" points="229.6038,-502.5 229.6038,-542.5 334.8378,-542.5 334.8378,-502.5 229.6038,-502.5"/>
<text text-anchor="middle" x="282.2208" y="-529.5" font-family="Helvetica,sans-Serif" font-size="10.00" fill="#000000">OwlMessage_v2</text>
<polyline fill="none" stroke="#000000" points="229.6038,-522.5 334.8378,-522.5 "/>
<text text-anchor="middle" x="282.2208" y="-509.5" font-family="Helvetica,sans-Serif" font-size="10.00" fill="#000000">ver : protovol ver.</text>
</g>
<!-- A0&#45;&gt;A4 -->
<g id="edge3" class="edge">
<title>A0&#45;&gt;A4</title>
<path fill="none" stroke="#000000" d="M282.2208,-611.0978C282.2208,-589.6608 282.2208,-561.5387 282.2208,-542.7858"/>
<polygon fill="none" stroke="#000000" points="278.7209,-611.3132 282.2208,-621.3133 285.7209,-611.3133 278.7209,-611.3132"/>
</g>
<!-- A8 -->
<g id="node9" class="node">
<title>A8</title>
<polygon fill="none" stroke="#000000" points="54.9958,-353.5 54.9958,-429.5 137.4458,-429.5 137.4458,-353.5 54.9958,-353.5"/>
<text text-anchor="middle" x="96.2208" y="-416.5" font-family="Helvetica,sans-Serif" font-size="10.00" fill="#000000">OwlChannel</text>
<polyline fill="none" stroke="#000000" points="54.9958,-409.5 137.4458,-409.5 "/>
<text text-anchor="middle" x="96.2208" y="-396.5" font-family="Helvetica,sans-Serif" font-size="10.00" fill="#000000">id:</text>
<text text-anchor="middle" x="96.2208" y="-384.5" font-family="Helvetica,sans-Serif" font-size="10.00" fill="#000000">channel_id</text>
<text text-anchor="middle" x="96.2208" y="-372.5" font-family="Helvetica,sans-Serif" font-size="10.00" fill="#000000">current_w</text>
<text text-anchor="middle" x="96.2208" y="-360.5" font-family="Helvetica,sans-Serif" font-size="10.00" fill="#000000">daily_wh</text>
</g>
<!-- A1&#45;&gt;A8 -->
<g id="edge6" class="edge">
<title>A1&#45;&gt;A8</title>
<path fill="none" stroke="#000000" d="M125.0962,-496.305C118.5901,-480.0278 111.2264,-458.6116 105.4101,-439.3834"/>
<polygon fill="#000000" stroke="#000000" points="102.5224,-429.5666 109.6616,-437.8902 103.9335,-434.3634 105.3445,-439.1601 105.3445,-439.1601 105.3445,-439.1601 103.9335,-434.3634 101.0274,-440.4301 102.5224,-429.5666 102.5224,-429.5666"/>
<text text-anchor="middle" x="110.6035" y="-479.5224" font-family="Helvetica,sans-Serif" font-size="10.00" fill="#000000">export</text>
</g>
<!-- A1&#45;&gt;A8 -->
<g id="edge7" class="edge">
<title>A1&#45;&gt;A8</title>
<path fill="none" stroke="#000000" d="M136.1488,-496.305C131.9498,-479.9531 125.2117,-458.415 118.3728,-439.119"/>
<polygon fill="#000000" stroke="#000000" points="114.9096,-429.5666 122.5486,-437.434 116.6138,-434.2672 118.318,-438.9678 118.318,-438.9678 118.318,-438.9678 116.6138,-434.2672 114.0875,-440.5016 114.9096,-429.5666 114.9096,-429.5666"/>
<text text-anchor="middle" x="129.0339" y="-440.7265" font-family="Helvetica,sans-Serif" font-size="10.00" fill="#000000">gen</text>
</g>
<!-- A3 -->
<g id="node4" class="node">
<title>A3</title>
<polygon fill="#fff8dc" stroke="#000000" points="463.2338,-659.5 351.2078,-659.5 351.2078,-623.5 469.2338,-623.5 469.2338,-653.5 463.2338,-659.5"/>
<polyline fill="none" stroke="#000000" points="463.2338,-659.5 463.2338,-653.5 "/>
<polyline fill="none" stroke="#000000" points="469.2338,-653.5 463.2338,-653.5 "/>
<text text-anchor="middle" x="410.2208" y="-644.5" font-family="Helvetica,sans-Serif" font-size="10.00" fill="#000000">Weather is a special</text>
<text text-anchor="middle" x="410.2208" y="-632.5" font-family="Helvetica,sans-Serif" font-size="10.00" fill="#000000">case</text>
</g>
<!-- A10 -->
<g id="node11" class="node">
<title>A10</title>
<polygon fill="none" stroke="#000000" points="229.2703,-371.5 229.2703,-411.5 301.1713,-411.5 301.1713,-371.5 229.2703,-371.5"/>
<text text-anchor="middle" x="265.2208" y="-398.5" font-family="Helvetica,sans-Serif" font-size="10.00" fill="#000000">hot_water</text>
<polyline fill="none" stroke="#000000" points="229.2703,-391.5 301.1713,-391.5 "/>
<text text-anchor="middle" x="265.2208" y="-378.5" font-family="Helvetica,sans-Serif" font-size="10.00" fill="#000000">zones</text>
</g>
<!-- A4&#45;&gt;A10 -->
<g id="edge8" class="edge">
<title>A4&#45;&gt;A10</title>
<path fill="none" stroke="#000000" d="M278.3145,-492.398C275.1135,-467.7315 270.6701,-433.4918 267.8708,-411.9204"/>
<polygon fill="none" stroke="#000000" points="274.8439,-492.8519 279.6018,-502.3183 281.7857,-491.951 274.8439,-492.8519"/>
</g>
<!-- A11 -->
<g id="node12" class="node">
<title>A11</title>
<polygon fill="none" stroke="#000000" points="318.8243,-371.5 318.8243,-411.5 379.6173,-411.5 379.6173,-371.5 318.8243,-371.5"/>
<text text-anchor="middle" x="349.2208" y="-398.5" font-family="Helvetica,sans-Serif" font-size="10.00" fill="#000000">heating</text>
<polyline fill="none" stroke="#000000" points="318.8243,-391.5 379.6173,-391.5 "/>
<text text-anchor="middle" x="349.2208" y="-378.5" font-family="Helvetica,sans-Serif" font-size="10.00" fill="#000000">zones</text>
</g>
<!-- A4&#45;&gt;A11 -->
<g id="edge11" class="edge">
<title>A4&#45;&gt;A11</title>
<path fill="none" stroke="#000000" d="M297.1123,-493.3838C309.762,-468.6509 327.5964,-433.7807 338.7768,-411.9204"/>
<polygon fill="none" stroke="#000000" points="293.9802,-491.8215 292.5427,-502.3183 300.2124,-495.009 293.9802,-491.8215"/>
</g>
<!-- A5 -->
<g id="node6" class="node">
<title>A5</title>
<polygon fill="none" stroke="#000000" points="222.8813,-218.5 222.8813,-302.5 307.5603,-302.5 307.5603,-218.5 222.8813,-218.5"/>
<text text-anchor="middle" x="265.2208" y="-289.5" font-family="Helvetica,sans-Serif" font-size="10.00" fill="#000000">OwlZone</text>
<polyline fill="none" stroke="#000000" points="222.8813,-282.5 307.5603,-282.5 "/>
<text text-anchor="middle" x="265.2208" y="-269.5" font-family="Helvetica,sans-Serif" font-size="10.00" fill="#000000">id : zone_id</text>
<polyline fill="none" stroke="#000000" points="222.8813,-262.5 307.5603,-262.5 "/>
<text text-anchor="middle" x="265.2208" y="-249.5" font-family="Helvetica,sans-Serif" font-size="10.00" fill="#000000">signal_rssi</text>
<text text-anchor="middle" x="265.2208" y="-237.5" font-family="Helvetica,sans-Serif" font-size="10.00" fill="#000000">signal_lqi</text>
<text text-anchor="middle" x="265.2208" y="-225.5" font-family="Helvetica,sans-Serif" font-size="10.00" fill="#000000">battery_level</text>
</g>
<!-- A6 -->
<g id="node7" class="node">
<title>A6</title>
<polygon fill="none" stroke="#000000" points="248.1558,-103.5 248.1558,-167.5 372.2858,-167.5 372.2858,-103.5 248.1558,-103.5"/>
<text text-anchor="middle" x="310.2208" y="-154.5" font-family="Helvetica,sans-Serif" font-size="10.00" fill="#000000">OwlTemperature</text>
<polyline fill="none" stroke="#000000" points="248.1558,-147.5 372.2858,-147.5 "/>
<text text-anchor="middle" x="310.2208" y="-134.5" font-family="Helvetica,sans-Serif" font-size="10.00" fill="#000000">temperature_state</text>
<text text-anchor="middle" x="310.2208" y="-122.5" font-family="Helvetica,sans-Serif" font-size="10.00" fill="#000000">temperature_current</text>
<text text-anchor="middle" x="310.2208" y="-110.5" font-family="Helvetica,sans-Serif" font-size="10.00" fill="#000000">temperature_required</text>
</g>
<!-- A5&#45;&gt;A6 -->
<g id="edge13" class="edge">
<title>A5&#45;&gt;A6</title>
<path fill="none" stroke="#000000" d="M280.4558,-218.1807C285.1697,-205.0865 290.3602,-190.6685 295.0685,-177.5899"/>
<polygon fill="#000000" stroke="#000000" points="298.559,-167.8938 299.4058,-178.827 296.8654,-172.5983 295.1718,-177.3027 295.1718,-177.3027 295.1718,-177.3027 296.8654,-172.5983 290.9378,-175.7785 298.559,-167.8938 298.559,-167.8938"/>
</g>
<!-- A7 -->
<g id="node8" class="node">
<title>A7</title>
<polygon fill="none" stroke="#000000" points="194.2758,-.5 194.2758,-52.5 336.1658,-52.5 336.1658,-.5 194.2758,-.5"/>
<text text-anchor="middle" x="265.2208" y="-39.5" font-family="Helvetica,sans-Serif" font-size="10.00" fill="#000000">OwlHWZoneTemperature</text>
<polyline fill="none" stroke="#000000" points="194.2758,-32.5 336.1658,-32.5 "/>
<text text-anchor="middle" x="265.2208" y="-19.5" font-family="Helvetica,sans-Serif" font-size="10.00" fill="#000000">humidity</text>
<text text-anchor="middle" x="265.2208" y="-7.5" font-family="Helvetica,sans-Serif" font-size="10.00" fill="#000000">temperature_ambient</text>
</g>
<!-- A5&#45;&gt;A7 -->
<g id="edge10" class="edge">
<title>A5&#45;&gt;A7</title>
<path fill="none" stroke="#000000" d="M250.6992,-218.1889C246.0543,-202.609 241.5219,-184.6903 239.2208,-168 235.2753,-139.3818 234.5097,-131.5022 239.2208,-103 241.4771,-89.3496 245.8543,-74.8618 250.3832,-62.2082"/>
<polygon fill="#000000" stroke="#000000" points="254.0102,-52.5046 254.7241,-63.4472 252.2596,-57.1881 250.509,-61.8716 250.509,-61.8716 250.509,-61.8716 252.2596,-57.1881 246.2938,-60.2961 254.0102,-52.5046 254.0102,-52.5046"/>
</g>
<!-- A6&#45;&gt;A7 -->
<g id="edge4" class="edge">
<title>A6&#45;&gt;A7</title>
<path fill="none" stroke="#000000" d="M293.0811,-93.9839C287.3311,-80.0561 281.0852,-64.927 275.9673,-52.5303"/>
<polygon fill="none" stroke="#000000" points="289.9115,-95.4783 296.9627,-103.3859 296.3818,-92.807 289.9115,-95.4783"/>
</g>
<!-- A9 -->
<g id="node10" class="node">
<title>A9</title>
<polygon fill="none" stroke="#000000" points="1.0513,-228.5 1.0513,-292.5 87.3903,-292.5 87.3903,-228.5 1.0513,-228.5"/>
<text text-anchor="middle" x="44.2208" y="-279.5" font-family="Helvetica,sans-Serif" font-size="10.00" fill="#000000">OwlProperty</text>
<polyline fill="none" stroke="#000000" points="1.0513,-272.5 87.3903,-272.5 "/>
<text text-anchor="middle" x="44.2208" y="-259.5" font-family="Helvetica,sans-Serif" font-size="10.00" fill="#000000">current_price</text>
<text text-anchor="middle" x="44.2208" y="-247.5" font-family="Helvetica,sans-Serif" font-size="10.00" fill="#000000">current_cost</text>
<text text-anchor="middle" x="44.2208" y="-235.5" font-family="Helvetica,sans-Serif" font-size="10.00" fill="#000000">day_cost</text>
</g>
<!-- A8&#45;&gt;A9 -->
<g id="edge5" class="edge">
<title>A8&#45;&gt;A9</title>
<path fill="none" stroke="#000000" d="M77.186,-343.5469C70.4834,-326.6616 63.1141,-308.0966 57.0461,-292.8098"/>
<polygon fill="none" stroke="#000000" points="74.0979,-345.254 81.0405,-353.2572 80.6041,-342.6714 74.0979,-345.254"/>
</g>
<!-- A10&#45;&gt;A5 -->
<g id="edge9" class="edge">
<title>A10&#45;&gt;A5</title>
<path fill="none" stroke="#000000" d="M265.2208,-371.3183C265.2208,-355.7234 265.2208,-333.4058 265.2208,-312.8804"/>
<polygon fill="#000000" stroke="#000000" points="265.2208,-302.6717 269.7209,-312.6717 265.2209,-307.6717 265.2209,-312.6717 265.2209,-312.6717 265.2209,-312.6717 265.2209,-307.6717 260.7209,-312.6718 265.2208,-302.6717 265.2208,-302.6717"/>
</g>
<!-- A11&#45;&gt;A5 -->
<g id="edge12" class="edge">
<title>A11&#45;&gt;A5</title>
<path fill="none" stroke="#000000" d="M336.2799,-371.3183C326.0061,-355.2961 311.1822,-332.1779 297.7292,-311.1976"/>
<polygon fill="#000000" stroke="#000000" points="292.2622,-302.6717 301.4482,-308.6607 294.9612,-306.8807 297.6601,-311.0898 297.6601,-311.0898 297.6601,-311.0898 294.9612,-306.8807 293.872,-313.5188 292.2622,-302.6717 292.2622,-302.6717"/>
</g>
<!-- A12 -->
<g id="node13" class="node">
<title>A12</title>
<polygon fill="none" stroke="#000000" points="18.3898,-615.5 18.3898,-667.5 88.0518,-667.5 88.0518,-615.5 18.3898,-615.5"/>
<text text-anchor="middle" x="53.2208" y="-654.5" font-family="Helvetica,sans-Serif" font-size="10.00" fill="#000000">electricity</text>
<polyline fill="none" stroke="#000000" points="18.3898,-647.5 88.0518,-647.5 "/>
<text text-anchor="middle" x="53.2208" y="-634.5" font-family="Helvetica,sans-Serif" font-size="10.00" fill="#000000">id</text>
<text text-anchor="middle" x="53.2208" y="-622.5" font-family="Helvetica,sans-Serif" font-size="10.00" fill="#000000">ver</text>
</g>
<!-- A12&#45;&gt;A5 -->
<g id="edge14" class="edge">
<title>A12&#45;&gt;A5</title>
<path fill="none" stroke="#000000" d="M88.3308,-630.097C118.1441,-618.5289 159.5896,-597.627 182.2208,-565 236.7784,-486.3455 190.5576,-444.0118 220.2208,-353 224.674,-339.3368 230.7738,-325.1238 237.0451,-312.0566"/>
<polygon fill="#000000" stroke="#000000" points="241.6208,-302.7684 241.2383,-313.7276 239.4112,-307.2537 237.2016,-311.7389 237.2016,-311.7389 237.2016,-311.7389 239.4112,-307.2537 233.1648,-309.7503 241.6208,-302.7684 241.6208,-302.7684"/>
</g>
<!-- A12&#45;&gt;A9 -->
<g id="edge17" class="edge">
<title>A12&#45;&gt;A9</title>
<path fill="none" stroke="#000000" d="M34.0794,-615.3425C24.9146,-601.1984 14.9281,-582.9814 10.2208,-565 -13.7837,-473.3044 12.1019,-361.7299 30.0548,-302.3769"/>
<polygon fill="#000000" stroke="#000000" points="33.0798,-292.6142 34.4184,-303.4981 31.5999,-297.3902 30.12,-302.1662 30.12,-302.1662 30.12,-302.1662 31.5999,-297.3902 25.8217,-300.8343 33.0798,-292.6142 33.0798,-292.6142"/>
</g>
<!-- A13 -->
<g id="node14" class="node">
<title>A13</title>
<polygon fill="none" stroke="#000000" points="19.2138,-502.5 19.2138,-542.5 87.2278,-542.5 87.2278,-502.5 19.2138,-502.5"/>
<text text-anchor="middle" x="53.2208" y="-529.5" font-family="Helvetica,sans-Serif" font-size="10.00" fill="#000000">channels</text>
<polyline fill="none" stroke="#000000" points="19.2138,-522.5 87.2278,-522.5 "/>
<text text-anchor="middle" x="53.2208" y="-509.5" font-family="Helvetica,sans-Serif" font-size="10.00" fill="#000000">chan</text>
</g>
<!-- A12&#45;&gt;A13 -->
<g id="edge15" class="edge">
<title>A12&#45;&gt;A13</title>
<path fill="none" stroke="#000000" d="M53.2208,-615.3849C53.2208,-596.9123 53.2208,-572.092 53.2208,-552.756"/>
<polygon fill="#000000" stroke="#000000" points="53.2208,-542.6531 57.7209,-552.653 53.2209,-547.6531 53.2209,-552.6531 53.2209,-552.6531 53.2209,-552.6531 53.2209,-547.6531 48.7209,-552.6531 53.2208,-542.6531 53.2208,-542.6531"/>
</g>
<!-- A13&#45;&gt;A8 -->
<g id="edge16" class="edge">
<title>A13&#45;&gt;A8</title>
<path fill="none" stroke="#000000" d="M59.8453,-502.3183C65.3409,-485.5762 73.3796,-461.0859 80.5034,-439.3832"/>
<polygon fill="#000000" stroke="#000000" points="83.6997,-429.6457 84.8565,-440.5504 82.1403,-434.3963 80.5809,-439.147 80.5809,-439.147 80.5809,-439.147 82.1403,-434.3963 76.3054,-437.7435 83.6997,-429.6457 83.6997,-429.6457"/>
</g>
</g>
</svg>
