<?xml version="1.0" encoding="UTF-8" standalone="no"?>
<!DOCTYPE svg PUBLIC "-//W3C//DTD SVG 1.1//EN"
 "http://www.w3.org/Graphics/SVG/1.1/DTD/svg11.dtd">
<!-- Generated by graphviz version 2.40.1 (20161225.0304)
 -->
<!-- Title: G Pages: 1 -->
<svg width="162pt" height="148pt"
 viewBox="0.00 0.00 161.95 148.00" xmlns="http://www.w3.org/2000/svg" xmlns:xlink="http://www.w3.org/1999/xlink">
<g id="graph0" class="graph" transform="scale(1 1) rotate(0) translate(4 144)">
<title>G</title>
<polygon fill="#ffffff" stroke="transparent" points="-4,4 -4,-144 157.9495,-144 157.9495,4 -4,4"/>
<!-- A0 -->
<g id="node1" class="node">
<title>A0</title>
<polygon fill="none" stroke="#000000" points="52.168,-87.5 52.168,-139.5 115.731,-139.5 115.731,-87.5 52.168,-87.5"/>
<text text-anchor="middle" x="83.9495" y="-126.5" font-family="Helvetica,sans-Serif" font-size="10.00" fill="#000000">weather</text>
<polyline fill="none" stroke="#000000" points="52.168,-119.5 115.731,-119.5 "/>
<text text-anchor="middle" x="83.9495" y="-106.5" font-family="Helvetica,sans-Serif" font-size="10.00" fill="#000000">id</text>
<text text-anchor="middle" x="83.9495" y="-94.5" font-family="Helvetica,sans-Serif" font-size="10.00" fill="#000000">code</text>
</g>
<!-- A1 -->
<g id="node2" class="node">
<title>A1</title>
<polygon fill="none" stroke="#000000" points="0,-.5 0,-36.5 81.899,-36.5 81.899,-.5 0,-.5"/>
<text text-anchor="middle" x="40.9495" y="-15.5" font-family="Helvetica,sans-Serif" font-size="10.00" fill="#000000">temperature</text>
</g>
<!-- A0&#45;&gt;A1 -->
<g id="edge1" class="edge">
<title>A0&#45;&gt;A1</title>
<path fill="none" stroke="#000000" d="M72.0857,-87.2894C66.2618,-74.4224 59.2484,-58.9277 53.3535,-45.9041"/>
<polygon fill="#000000" stroke="#000000" points="49.1019,-36.511 57.3251,-43.7656 51.1637,-41.0662 53.2255,-45.6213 53.2255,-45.6213 53.2255,-45.6213 51.1637,-41.0662 49.1259,-47.4769 49.1019,-36.511 49.1019,-36.511"/>
</g>
<!-- A2 -->
<g id="node3" class="node">
<title>A2</title>
<polygon fill="none" stroke="#000000" points="99.9495,-.5 99.9495,-36.5 153.9495,-36.5 153.9495,-.5 99.9495,-.5"/>
<text text-anchor="middle" x="126.508" y="-15.5" font-family="Helvetica,sans-Serif" font-size="10.00" fill="#000000">text</text>
</g>
<!-- A0&#45;&gt;A2 -->
<g id="edge2" class="edge">
<title>A0&#45;&gt;A2</title>
<path fill="none" stroke="#000000" d="M95.8133,-87.2894C101.6372,-74.4224 108.6506,-58.9277 114.5455,-45.9041"/>
<polygon fill="#000000" stroke="#000000" points="118.7971,-36.511 118.7731,-47.4769 116.7353,-41.0662 114.6735,-45.6213 114.6735,-45.6213 114.6735,-45.6213 116.7353,-41.0662 110.5739,-43.7656 118.7971,-36.511 118.7971,-36.511"/>
</g>
</g>
</svg>
